<?xml version="1.0" encoding="UTF-8"?>
<svg width="48px" height="48px" viewBox="0 0 48 48" version="1.1" xmlns="http://www.w3.org/2000/svg" xmlns:xlink="http://www.w3.org/1999/xlink">
    <!-- Generator: Sketch 46.2 (44496) - http://www.bohemiancoding.com/sketch -->
    <title>Check</title>
    <desc>Created with Sketch.</desc>
    <defs></defs>
    <g id="Home" stroke="none" stroke-width="1" fill="none" fill-rule="evenodd">
        <g id="Vintix---Home" transform="translate(-993.000000, -784.000000)">
            <g id="DESCRIPCION" transform="translate(0.000000, 688.000000)">
                <g id="Check" transform="translate(993.000000, 96.000000)">
                    <g id="Group">
                        <circle id="Oval" fill="#74CF65" cx="24" cy="24" r="24"></circle>
                        <path d="M17.6126254,37.7855901 L6.75010815,26.9148781 C6.32728354,26.4915637 6.32728354,25.8055913 6.75010815,25.3824124 L9.68050069,22.4500971 C10.1034607,22.0267828 10.7893491,22.0267828 11.2123091,22.4500971 L17.6123546,28.8545382 C18.0353146,29.2778525 18.7212031,29.2778525 19.1441631,28.8546737 L36.2912378,11.6988613 C36.7141978,11.2756825 37.3998154,11.2756825 37.8227754,11.6985904 L40.7546572,14.629822 C41.177888,15.0530009 41.1780234,15.7393797 40.754928,16.162694 L19.1445692,37.7857256 C18.7214738,38.2089044 18.0355854,38.2089044 17.6126254,37.7855901" id="Fill-1" fill="#FFFFFF"></path>
                    </g>
                </g>
            </g>
        </g>
    </g>
</svg>