<?xml version="1.0" encoding="UTF-8"?>
<svg width="56px" height="56px" viewBox="0 0 56 56" version="1.1" xmlns="http://www.w3.org/2000/svg" xmlns:xlink="http://www.w3.org/1999/xlink">
    <!-- Generator: Sketch 47.1 (45422) - http://www.bohemiancoding.com/sketch -->
    <title>facebook</title>
    <desc>Created with Sketch.</desc>
    <defs>
        <linearGradient x1="100.002655%" y1="99.996937%" x2="34.6563202%" y2="34.6521411%" id="linearGradient-1">
            <stop stop-color="#FFFFFF" stop-opacity="0" offset="31.63%"></stop>
            <stop stop-color="#E9E9E9" stop-opacity="0.0504" offset="35.08%"></stop>
            <stop stop-color="#ACACAC" stop-opacity="0.2018" offset="45.43%"></stop>
            <stop stop-color="#787878" stop-opacity="0.3523" offset="55.72%"></stop>
            <stop stop-color="#4D4D4D" stop-opacity="0.4981" offset="65.69%"></stop>
            <stop stop-color="#2B2B2B" stop-opacity="0.6385" offset="75.28%"></stop>
            <stop stop-color="#131313" stop-opacity="0.7719" offset="84.41%"></stop>
            <stop stop-color="#050505" stop-opacity="0.8956" offset="92.86%"></stop>
            <stop stop-color="#000000" offset="100%"></stop>
        </linearGradient>
        <circle id="path-2" cx="24.029" cy="24" r="24"></circle>
        <linearGradient x1="107.157544%" y1="83.696129%" x2="0.714644667%" y2="14.8967742%" id="linearGradient-4">
            <stop stop-color="#000000" stop-opacity="0" offset="58.16%"></stop>
            <stop stop-color="#000000" stop-opacity="0.117" offset="63.06%"></stop>
            <stop stop-color="#000000" offset="100%"></stop>
        </linearGradient>
    </defs>
    <g id="Home" stroke="none" stroke-width="1" fill="none" fill-rule="evenodd">
        <g id="Vintix---Home-Copy" transform="translate(-128.000000, -2737.000000)">
            <g id="facebook" transform="translate(128.000000, 2737.000000)">
                <polygon id="Circle_Shadow" fill="url(#linearGradient-1)" fill-rule="nonzero" opacity="0.2" points="56.029 56 56.029 22.059 41 7.029 7.059 40.971 22.088 56"></polygon>
                <circle id="Circle" fill="#3A5BA0" fill-rule="nonzero" cx="24" cy="24" r="24"></circle>
                <g id="f_shadow">
                    <g id="Clipped">
                        <mask id="mask-3" fill="white">
                            <use xlink:href="#path-2"></use>
                        </mask>
                        <g id="SVGID_1_"></g>
                        <path d="M62.029,46 L64.029,46 L64.029,41 C64.029,41 63.99,41 63.924,41 L63.924,40.895 C63.924,40.895 63.884,40.895 63.817,40.895 L63.817,40.789 C63.817,40.789 63.778,40.789 63.712,40.789 L63.712,40.683 C63.712,40.683 63.672,40.683 63.607,40.683 L63.607,40.579 C63.607,40.579 63.566,40.579 63.501,40.579 L63.501,40.473 C63.501,40.473 63.461,40.473 63.395,40.473 L63.395,40.368 C63.395,40.368 63.356,40.368 63.29,40.368 L63.29,40.262 C63.29,40.262 63.25,40.262 63.185,40.262 L63.185,40.156 C63.185,40.156 63.144,40.156 63.079,40.156 L63.079,40.051 C63.079,40.051 63.039,40.051 62.973,40.051 L62.973,39.946 C62.973,39.946 62.934,39.946 62.868,39.946 L62.868,39.83 C62.868,39.83 62.829,39.83 62.763,39.83 L62.763,39.725 C62.763,39.725 62.723,39.725 62.658,39.725 L62.658,39.62 C62.658,39.62 62.617,39.62 62.552,39.62 L62.552,39.515 C62.552,39.515 62.512,39.515 62.446,39.515 L62.446,39.409 C62.446,39.409 62.407,39.409 62.341,39.409 L62.341,39.303 C62.341,39.303 62.301,39.303 62.236,39.303 L62.236,39.198 C62.236,39.198 62.195,39.198 62.13,39.198 L62.13,39.092 C62.13,39.092 62.09,39.092 62.024,39.092 L62.024,38.98 C62.024,38.98 61.985,38.98 61.919,38.98 L61.919,38.874 C61.919,38.874 61.879,38.874 61.813,38.874 L61.813,38.768 C61.813,38.768 61.773,38.768 61.707,38.768 L61.707,38.663 C61.707,38.663 61.668,38.663 61.602,38.663 L61.602,38.558 C61.602,38.558 61.562,38.558 61.497,38.558 L61.497,38.45 C61.497,38.45 61.456,38.45 61.391,38.45 L61.391,38.344 C61.391,38.344 61.351,38.344 61.285,38.344 L61.285,38.24 C61.285,38.24 61.246,38.24 61.18,38.24 L61.18,38.13 C61.18,38.13 61.14,38.13 61.075,38.13 L61.075,38.024 C61.075,38.024 61.034,38.024 60.969,38.024 L60.969,37.919 C60.969,37.919 60.929,37.919 60.863,37.919 L60.863,37.814 C60.863,37.814 60.824,37.814 60.758,37.814 L60.758,37.708 C60.758,37.708 60.718,37.708 60.652,37.708 L60.652,37.604 C60.652,37.604 60.612,37.604 60.546,37.604 L60.546,37.497 C60.546,37.497 60.507,37.497 60.442,37.497 L60.442,37.392 C60.442,37.392 60.402,37.392 60.336,37.392 L60.336,37.287 C60.336,37.287 60.297,37.287 60.231,37.287 L60.231,37.181 C60.231,37.181 60.191,37.181 60.126,37.181 L60.126,37.07 C60.126,37.07 60.085,37.07 60.02,37.07 L60.02,36.96 C60.02,36.96 59.98,36.96 59.914,36.96 L59.914,36.854 C59.914,36.854 59.875,36.854 59.809,36.854 L59.809,36.749 C59.809,36.749 59.769,36.749 59.704,36.749 L59.704,36.644 C59.704,36.644 59.663,36.644 59.598,36.644 L59.598,36.539 C59.598,36.539 59.558,36.539 59.492,36.539 L59.492,36.434 C59.492,36.434 59.453,36.434 59.387,36.434 L59.387,36.328 C59.387,36.328 59.346,36.328 59.281,36.328 L59.281,36.222 C59.281,36.222 59.241,36.222 59.175,36.222 L59.175,36.117 C59.175,36.117 59.136,36.117 59.07,36.117 L59.07,36.012 C59.07,36.012 59.03,36.012 58.965,36.012 L58.965,35.9 C58.965,35.9 58.924,35.9 58.859,35.9 L58.859,35.796 C58.859,35.796 58.819,35.796 58.753,35.796 L58.753,35.69 C58.753,35.69 58.714,35.69 58.648,35.69 L58.648,35.585 C58.648,35.585 58.608,35.585 58.543,35.585 L58.543,35.48 C58.543,35.48 58.502,35.48 58.437,35.48 L58.437,35.374 C58.437,35.374 58.397,35.374 58.331,35.374 L58.331,35.26 C58.331,35.26 58.291,35.26 58.226,35.26 L58.226,35.153 C58.226,35.153 58.185,35.153 58.12,35.153 L58.12,35.049 C58.12,35.049 58.08,35.049 58.014,35.049 L58.014,34.941 C58.014,34.941 57.975,34.941 57.909,34.941 L57.909,34.836 C57.909,34.836 57.869,34.836 57.804,34.836 L57.804,34.731 C57.804,34.731 57.763,34.731 57.698,34.731 L57.698,34.625 C57.698,34.625 57.658,34.625 57.592,34.625 L57.592,34.519 C57.592,34.519 57.553,34.519 57.487,34.519 L57.487,34.415 C57.487,34.415 57.447,34.415 57.382,34.415 L57.382,34.309 C57.382,34.309 57.341,34.309 57.276,34.309 L57.276,34.204 C57.276,34.204 57.237,34.204 57.171,34.204 L57.171,34.09 C57.171,34.09 57.131,34.09 57.065,34.09 L57.065,33.985 C57.065,33.985 57.026,33.985 56.96,33.985 L56.96,33.879 C56.96,33.879 56.92,33.879 56.853,33.879 L56.853,33.773 C56.853,33.773 56.814,33.773 56.749,33.773 L56.749,33.669 C56.749,33.669 56.709,33.669 56.643,33.669 L56.643,33.563 C56.643,33.563 56.604,33.563 56.538,33.563 L56.538,33.458 C56.538,33.458 56.498,33.458 56.433,33.458 L56.433,33.35 C56.433,33.35 56.392,33.35 56.327,33.35 L56.327,33.244 C56.327,33.244 56.287,33.244 56.221,33.244 L56.221,33.138 C56.221,33.138 56.182,33.138 56.116,33.138 L56.116,33.033 C56.116,33.033 56.076,33.033 56.01,33.033 L56.01,32.92 C56.01,32.92 55.97,32.92 55.904,32.92 L55.904,32.815 C55.904,32.815 55.865,32.815 55.799,32.815 L55.799,32.709 C55.799,32.709 55.759,32.709 55.694,32.709 L55.694,32.605 C55.694,32.605 55.653,32.605 55.588,32.605 L55.588,32.499 C55.588,32.499 55.548,32.499 55.482,32.499 L55.482,32.393 C55.482,32.393 55.443,32.393 55.377,32.393 L55.377,32.288 C55.377,32.288 55.337,32.288 55.272,32.288 L55.272,32.18 C55.272,32.18 55.231,32.18 55.166,32.18 L55.166,32.07 C55.166,32.07 55.126,32.07 55.06,32.07 L55.06,31.963 C55.06,31.963 55.021,31.963 54.955,31.963 L54.955,31.858 C54.955,31.858 54.915,31.858 54.849,31.858 L54.849,31.753 C54.849,31.753 54.809,31.753 54.743,31.753 L54.743,31.648 C54.743,31.648 54.704,31.648 54.638,31.648 L54.638,31.54 C54.638,31.54 54.598,31.54 54.533,31.54 L54.533,31.434 C54.533,31.434 54.492,31.434 54.427,31.434 L54.427,31.33 C54.427,31.33 54.387,31.33 54.321,31.33 L54.321,31.222 C54.321,31.222 54.282,31.222 54.216,31.222 L54.216,31.116 C54.216,31.116 54.177,31.116 54.111,31.116 L54.111,31.01 C54.111,31.01 54.072,31.01 54.005,31.01 L54.005,30.9 C54.005,30.9 53.966,30.9 53.901,30.9 L53.901,30.794 C53.901,30.794 53.86,30.794 53.794,30.794 L53.794,30.688 C53.794,30.688 53.755,30.688 53.689,30.688 L53.689,30.584 C53.689,30.584 53.65,30.584 53.582,30.584 L53.582,30.478 C53.582,30.478 53.544,30.478 53.478,30.478 L53.478,30.373 C53.478,30.373 53.438,30.373 53.372,30.373 L53.372,30.268 C53.372,30.268 53.333,30.268 53.267,30.268 L53.267,30.162 C53.267,30.162 53.227,30.162 53.162,30.162 L53.162,30.05 C53.162,30.05 53.121,30.05 53.056,30.05 L53.056,29.944 C53.056,29.944 53.016,29.944 52.95,29.944 L52.95,29.839 C52.95,29.839 52.911,29.839 52.845,29.839 L52.845,29.73 C52.845,29.73 52.805,29.73 52.74,29.73 L52.74,29.625 C52.74,29.625 52.699,29.625 52.634,29.625 L52.634,29.518 C52.634,29.518 52.594,29.518 52.528,29.518 L52.528,29.414 C52.528,29.414 52.489,29.414 52.423,29.414 L52.423,29.308 C52.423,29.308 52.383,29.308 52.317,29.308 L52.317,29.203 C52.317,29.203 52.277,29.203 52.211,29.203 L52.211,29.098 C52.211,29.098 52.172,29.098 52.106,29.098 L52.106,28.992 C52.106,28.992 52.066,28.992 52.001,28.992 L52.001,28.887 C52.001,28.887 51.96,28.887 51.895,28.887 L51.895,28.781 C51.895,28.781 51.855,28.781 51.789,28.781 L51.789,28.676 C51.789,28.676 51.75,28.676 51.684,28.676 L51.684,28.571 C51.684,28.571 51.644,28.571 51.579,28.571 L51.579,28.46 C51.579,28.46 51.538,28.46 51.473,28.46 L51.473,28.354 C51.473,28.354 51.433,28.354 51.367,28.354 L51.367,28.249 C51.367,28.249 51.328,28.249 51.262,28.249 L51.262,28.144 C51.262,28.144 51.222,28.144 51.156,28.144 L51.156,28.031 C51.156,28.031 51.116,28.031 51.05,28.031 L51.05,27.926 C51.05,27.926 51.012,27.926 50.946,27.926 L50.946,27.821 C50.946,27.821 50.906,27.821 50.84,27.821 L50.84,27.715 C50.84,27.715 50.801,27.715 50.735,27.715 L50.735,27.611 C50.735,27.611 50.695,27.611 50.63,27.611 L50.63,27.5 C50.63,27.5 50.589,27.5 50.524,27.5 L50.524,27.395 C50.524,27.395 50.484,27.395 50.418,27.395 L50.418,27.29 C50.418,27.29 50.379,27.29 50.313,27.29 L50.313,27.18 C50.313,27.18 50.273,27.18 50.208,27.18 L50.208,27.075 C50.208,27.075 50.167,27.075 50.102,27.075 L50.102,26.969 C50.102,26.969 50.062,26.969 49.996,26.969 L49.996,26.861 C49.996,26.861 49.957,26.861 49.891,26.861 L49.891,26.756 C49.891,26.756 49.851,26.756 49.785,26.756 L49.785,26.651 C49.785,26.651 49.745,26.651 49.679,26.651 L49.679,26.546 C49.679,26.546 49.64,26.546 49.574,26.546 L49.574,26.441 C49.574,26.441 49.534,26.441 49.469,26.441 L49.469,26.335 C49.469,26.335 49.428,26.335 49.363,26.335 L49.363,26.229 C49.363,26.229 49.323,26.229 49.257,26.229 L49.257,26.124 C49.257,26.124 49.218,26.124 49.152,26.124 L49.152,26.01 C49.152,26.01 49.112,26.01 49.047,26.01 L49.047,25.905 C49.047,25.905 49.006,25.905 48.941,25.905 L48.941,25.799 C48.941,25.799 48.901,25.799 48.835,25.799 L48.835,25.695 C48.835,25.695 48.796,25.695 48.73,25.695 L48.73,25.589 C48.73,25.589 48.69,25.589 48.624,25.589 L48.624,25.48 C48.624,25.48 48.586,25.48 48.52,25.48 L48.52,25.375 C48.52,25.375 48.48,25.375 48.414,25.375 L48.414,25.27 C48.414,25.27 48.374,25.27 48.308,25.27 L48.308,25.164 C48.308,25.164 48.269,25.164 48.203,25.164 L48.203,25.058 C48.203,25.058 48.163,25.058 48.096,25.058 L48.096,24.953 C48.096,24.953 48.057,24.953 47.992,24.953 L47.992,24.848 C47.992,24.848 47.952,24.848 47.886,24.848 L47.886,24.74 C47.886,24.74 47.847,24.74 47.781,24.74 L47.781,24.634 C47.781,24.634 47.741,24.634 47.676,24.634 L47.676,24.528 C47.676,24.528 47.635,24.528 47.57,24.528 L47.57,24.423 C47.57,24.423 47.53,24.423 47.464,24.423 L47.464,24.31 C47.464,24.31 47.425,24.31 47.359,24.31 L47.359,24.203 C47.359,24.203 47.319,24.203 47.253,24.203 L47.253,24.097 C47.253,24.097 47.213,24.097 47.147,24.097 L47.147,23.99 C47.147,23.99 47.108,23.99 47.042,23.99 L47.042,23.884 C47.042,23.884 47.002,23.884 46.937,23.884 L46.937,23.777 C46.937,23.777 46.896,23.777 46.831,23.777 L46.831,23.671 C46.831,23.671 46.791,23.671 46.725,23.671 L46.725,23.565 C46.725,23.565 46.686,23.565 46.621,23.565 L46.621,23.46 C46.621,23.46 46.581,23.46 46.515,23.46 L46.515,23.353 C46.515,23.353 46.474,23.353 46.409,23.353 L46.409,23.247 C46.409,23.247 46.369,23.247 46.303,23.247 L46.303,23.14 C46.303,23.14 46.264,23.14 46.199,23.14 L46.199,23.034 C46.199,23.034 46.159,23.034 46.092,23.034 L46.092,22.928 C46.092,22.928 46.052,22.928 45.986,22.928 L45.986,22.82 C45.986,22.82 45.947,22.82 45.881,22.82 L45.881,22.715 C45.881,22.715 45.842,22.715 45.776,22.715 L45.776,22.609 C45.776,22.609 45.737,22.609 45.67,22.609 L45.67,22.503 C45.67,22.503 45.63,22.503 45.564,22.503 L45.564,22.396 C45.564,22.396 45.525,22.396 45.459,22.396 L45.459,22.29 C45.459,22.29 45.42,22.29 45.354,22.29 L45.354,22.184 C45.354,22.184 45.315,22.184 45.248,22.184 L45.248,22.078 C45.248,22.078 45.208,22.078 45.142,22.078 L45.142,21.97 C45.142,21.97 45.103,21.97 45.037,21.97 L45.037,21.864 C45.037,21.864 44.998,21.864 44.932,21.864 L44.932,21.758 C44.932,21.758 44.893,21.758 44.825,21.758 L44.825,21.652 C44.825,21.652 44.786,21.652 44.72,21.652 L44.72,21.546 C44.72,21.546 44.68,21.546 44.615,21.546 L44.615,21.44 C44.615,21.44 44.576,21.44 44.51,21.44 L44.51,21.335 C44.51,21.335 44.47,21.335 44.405,21.335 L44.405,21.228 C44.405,21.228 44.364,21.228 44.299,21.228 L44.299,21.12 C44.299,21.12 44.259,21.12 44.193,21.12 L44.193,21.014 C44.193,21.014 44.154,21.014 44.088,21.014 L44.088,20.908 C44.088,20.908 44.048,20.908 43.983,20.908 L43.983,20.802 C43.983,20.802 43.942,20.802 43.877,20.802 L43.877,20.696 C43.877,20.696 43.837,20.696 43.771,20.696 L43.771,20.59 C43.771,20.59 43.732,20.59 43.666,20.59 L43.666,20.485 C43.666,20.485 43.626,20.485 43.56,20.485 L43.56,20.378 C43.56,20.378 43.52,20.378 43.454,20.378 L43.454,20.272 C43.454,20.272 43.415,20.272 43.349,20.272 L43.349,20.167 C43.349,20.167 43.309,20.167 43.244,20.167 L43.244,20.061 C43.244,20.061 43.203,20.061 43.138,20.061 L43.138,19.95 C43.138,19.95 43.098,19.95 43.032,19.95 L43.032,19.844 C43.032,19.844 42.993,19.844 42.928,19.844 L42.928,19.738 C42.928,19.738 42.888,19.738 42.822,19.738 L42.822,19.632 C42.822,19.632 42.783,19.632 42.717,19.632 L42.717,19.526 C42.717,19.526 42.677,19.526 42.61,19.526 L42.61,19.419 C42.61,19.419 42.571,19.419 42.506,19.419 L42.506,19.314 C42.506,19.314 42.466,19.314 42.4,19.314 L42.4,19.208 C42.4,19.208 42.361,19.208 42.295,19.208 L42.295,19.1 C42.295,19.1 42.255,19.1 42.188,19.1 L42.188,18.994 C42.188,18.994 42.149,18.994 42.083,18.994 L42.083,18.888 C42.083,18.888 42.044,18.888 41.978,18.888 L41.978,18.782 C41.978,18.782 41.938,18.782 41.873,18.782 L41.873,18.675 C41.873,18.675 41.832,18.675 41.766,18.675 L41.766,18.569 C41.766,18.569 41.727,18.569 41.661,18.569 L41.661,18.463 C41.661,18.463 41.622,18.463 41.556,18.463 L41.556,18.357 C41.556,18.357 41.516,18.357 41.451,18.357 L41.451,18.25 C41.451,18.25 41.41,18.25 41.344,18.25 L41.344,18.144 C41.344,18.144 41.305,18.144 41.239,18.144 L41.239,18.038 C41.239,18.038 41.2,18.038 41.134,18.038 L41.134,17.933 C41.134,17.933 41.094,17.933 41.028,17.933 L41.028,17.826 C41.028,17.826 40.988,17.826 40.922,17.826 L40.922,17.72 C40.922,17.72 40.883,17.72 40.817,17.72 L40.817,17.614 C40.817,17.614 40.778,17.614 40.712,17.614 L40.712,17.508 C40.712,17.508 40.673,17.508 40.606,17.508 L40.606,17.402 C40.606,17.402 40.566,17.402 40.5,17.402 L40.5,17.295 C40.5,17.295 40.461,17.295 40.395,17.295 L40.395,17.19 C40.395,17.19 40.356,17.19 40.29,17.19 L40.29,17.08 C40.29,17.08 40.251,17.08 40.184,17.08 L40.184,16.974 C40.184,16.974 40.145,16.974 40.08,16.974 L40.08,16.868 C40.08,16.868 40.039,16.868 39.973,16.868 L39.973,16.762 C39.973,16.762 39.933,16.762 39.867,16.762 L39.867,16.656 C39.867,16.656 39.829,16.656 39.763,16.656 L39.763,16.55 C39.763,16.55 39.723,16.55 39.657,16.55 L39.657,16.444 C39.657,16.444 39.617,16.444 39.551,16.444 L39.551,16.338 C39.551,16.338 39.512,16.338 39.446,16.338 L39.446,16.232 C39.446,16.232 39.406,16.232 39.341,16.232 L39.341,16.126 C39.341,16.126 39.3,16.126 39.235,16.126 L39.235,16.02 C39.235,16.02 39.195,16.02 39.129,16.02 L39.129,15.91 C39.129,15.91 39.088,15.91 39.023,15.91 L39.023,15.804 C39.023,15.804 38.984,15.804 38.919,15.804 L38.919,15.698 C38.919,15.698 38.878,15.698 38.813,15.698 L38.813,15.592 C38.813,15.592 38.773,15.592 38.707,15.592 L38.707,15.485 C38.707,15.485 38.668,15.485 38.602,15.485 L38.602,15.379 C38.602,15.379 38.562,15.379 38.496,15.379 L38.496,15.273 C38.496,15.273 38.456,15.273 38.39,15.273 L38.39,15.167 C38.39,15.167 38.351,15.167 38.285,15.167 L38.285,15.06 C38.285,15.06 38.245,15.06 38.18,15.06 L38.18,14.954 C38.18,14.954 38.139,14.954 38.074,14.954 L38.074,14.848 C38.074,14.848 38.034,14.848 37.968,14.848 L37.968,14.742 C37.968,14.742 37.929,14.742 37.863,14.742 L37.863,14.636 C37.863,14.636 37.823,14.636 37.758,14.636 L37.758,14.53 C37.758,14.53 37.717,14.53 37.652,14.53 L37.652,14.424 C37.652,14.424 37.612,14.424 37.546,14.424 L37.546,14.317 C37.546,14.317 37.507,14.317 37.441,14.317 L37.441,14.211 C37.441,14.211 37.401,14.211 37.335,14.211 L37.335,14.104 C37.335,14.104 37.297,14.104 37.231,14.104 L37.231,13.999 C37.231,13.999 37.191,13.999 37.124,13.999 L37.124,13.89 C37.124,13.89 37.085,13.89 37.019,13.89 L37.019,13.784 C37.019,13.784 36.98,13.784 36.914,13.784 L36.914,13.678 C36.914,13.678 36.874,13.678 36.809,13.678 L36.809,13.572 C36.809,13.572 36.768,13.572 36.703,13.572 L36.703,13.465 C36.703,13.465 36.663,13.465 36.597,13.465 L36.597,13.359 C36.597,13.359 36.558,13.359 36.491,13.359 L36.491,13.253 C36.491,13.253 36.452,13.253 36.387,13.253 L36.387,13.147 C36.387,13.147 36.346,13.147 36.281,13.147 L36.281,13.04 C36.281,13.04 36.241,13.04 36.175,13.04 L36.175,12.934 C36.175,12.934 36.136,12.934 36.07,12.934 L36.07,12.828 C36.07,12.828 36.03,12.828 35.964,12.828 L35.964,12.722 C35.964,12.722 35.924,12.722 35.858,12.722 L35.858,12.616 C35.858,12.616 35.819,12.616 35.753,12.616 L35.753,12.51 C35.753,12.51 35.713,12.51 35.648,12.51 L35.648,12.404 C35.648,12.404 35.607,12.404 35.542,12.404 L35.542,12.298 C35.542,12.298 35.502,12.298 35.436,12.298 L35.436,12.192 C35.436,12.192 35.397,12.192 35.331,12.192 L35.331,12.086 C35.331,12.086 35.291,12.086 35.226,12.086 L35.226,11.98 C35.226,11.98 35.185,11.98 35.12,11.98 L35.12,11.874 C35.12,11.874 35.08,11.874 35.014,11.874 L35.014,11.767 C35.014,11.767 34.975,11.767 34.909,11.767 L34.909,11.661 C34.909,11.661 34.869,11.661 34.803,11.661 L34.803,11.555 C34.803,11.555 34.763,11.555 34.697,11.555 L34.697,11.449 C34.697,11.449 34.658,11.449 34.592,11.449 L34.592,11.343 C34.592,11.343 34.552,11.343 34.487,11.343 L34.487,11.237 C34.487,11.237 34.446,11.237 34.381,11.237 L34.381,11.131 C34.381,11.131 34.341,11.131 34.275,11.131 L34.275,11.02 C34.275,11.02 34.236,11.02 34.17,11.02 L34.17,10.914 C34.17,10.914 34.13,10.914 34.065,10.914 L34.065,10.808 C34.065,10.808 34.024,10.808 33.959,10.808 L33.959,10.702 C33.959,10.702 33.92,10.702 33.855,10.702 L33.855,10.596 C33.855,10.596 33.814,10.596 33.749,10.596 L33.749,10.49 C33.749,10.49 33.709,10.49 33.643,10.49 L33.643,10.383 C33.643,10.383 33.604,10.383 33.538,10.383 L33.538,10.278 C33.538,10.278 33.498,10.278 33.432,10.278 L33.432,10.171 C33.432,10.171 33.392,10.171 33.326,10.171 L33.326,10.065 C33.326,10.065 33.287,10.065 33.221,10.065 L33.221,9.958 C33.221,9.958 33.181,9.958 33.116,9.958 L33.116,9.852 C33.116,9.852 33.075,9.852 33.01,9.852 L33.01,9.746 C33.01,9.746 32.97,9.746 32.904,9.746 L32.904,9.64 C32.904,9.64 32.865,9.64 32.799,9.64 L32.799,9.533 C32.799,9.533 32.759,9.533 32.694,9.533 L32.694,9.428 C32.694,9.428 32.653,9.428 32.588,9.428 L32.588,9.321 C32.588,9.321 32.548,9.321 32.482,9.321 L32.482,9.215 C32.482,9.215 32.443,9.215 32.377,9.215 L32.377,9.109 C32.377,9.109 32.337,9.109 32.271,9.109 L32.271,9 C32.271,9 30.221,9 28.271,9 C24.199,9 21.271,11.435 21.271,16 L21.271,20 L16.271,20 L16.271,25 L16.377,25 L16.377,25.105 L16.483,25.105 L16.483,25.211 L16.59,25.211 L16.59,25.317 L16.696,25.317 L16.696,25.422 L16.802,25.422 L16.802,25.527 L16.909,25.527 L16.909,25.632 L17.015,25.632 L17.015,25.738 L17.121,25.738 L17.121,25.844 L17.228,25.844 L17.228,25.949 L17.334,25.949 L17.334,26.054 L17.44,26.054 L17.44,26.16 L17.547,26.16 L17.547,26.266 L17.653,26.266 L17.653,26.37 L17.759,26.37 L17.759,26.476 L17.866,26.476 L17.866,26.581 L17.971,26.581 L17.971,26.686 L18.077,26.686 L18.077,26.8 L18.184,26.8 L18.184,26.906 L18.29,26.906 L18.29,27.01 L18.396,27.01 L18.396,27.117 L18.502,27.117 L18.502,27.221 L18.608,27.221 L18.608,27.327 L18.714,27.327 L18.714,27.433 L18.82,27.433 L18.82,27.537 L18.926,27.537 L18.926,27.643 L19.032,27.643 L19.032,27.749 L19.139,27.749 L19.139,27.853 L19.245,27.853 L19.245,27.96 L19.351,27.96 L19.351,28.065 L19.457,28.065 L19.457,28.17 L19.563,28.17 L19.563,28.276 L19.669,28.276 L19.669,28.38 L19.775,28.38 L19.775,28.487 L19.881,28.487 L19.881,28.6 L19.988,28.6 L19.988,28.705 L20.094,28.705 L20.094,28.812 L20.2,28.812 L20.2,28.916 L20.307,28.916 L20.307,29.022 L20.413,29.022 L20.413,29.127 L20.518,29.127 L20.518,29.232 L20.624,29.232 L20.624,29.338 L20.731,29.338 L20.731,29.442 L20.7,29.442 L20.7,29.549 L20.807,29.549 L20.807,29.654 L20.913,29.654 L20.913,29.759 L21.019,29.759 L21.019,29.865 L21,29.865 L21,39 L21.106,39 L21.106,39.105 L21.212,39.105 L21.212,39.211 L21.318,39.211 L21.318,39.317 L21.424,39.317 L21.424,39.422 L21.53,39.422 L21.53,39.527 L21.637,39.527 L21.637,39.632 L21.743,39.632 L21.743,39.738 L21.849,39.738 L21.849,39.844 L21.955,39.844 L21.955,39.949 L22.061,39.949 L22.061,40.054 L22.168,40.054 L22.168,40.16 L22.274,40.16 L22.274,40.266 L22.38,40.266 L22.38,40.37 L22.486,40.37 L22.486,40.476 L22.592,40.476 L22.592,40.581 L22.698,40.581 L22.698,40.7 L22.805,40.7 L22.805,40.806 L22.911,40.806 L22.911,40.912 L23.017,40.912 L23.017,41.016 L23.124,41.016 L23.124,41.123 L23.23,41.123 L23.23,41.228 L23.336,41.228 L23.336,41.333 L23.443,41.333 L23.443,41.438 L23.549,41.438 L23.549,41.543 L23.655,41.543 L23.655,41.65 L23.761,41.65 L23.761,41.755 L23.867,41.755 L23.867,41.86 L23.974,41.86 L23.974,41.967 L24.08,41.967 L24.08,42.071 L24.186,42.071 L24.186,42.177 L24.292,42.177 L24.292,42.282 L24.398,42.282 L24.398,42.387 L24.505,42.387 L24.505,42.5 L24.611,42.5 L24.611,42.607 L24.716,42.607 L24.716,42.711 L24.822,42.711 L24.822,42.817 L24.928,42.817 L24.928,42.922 L25.033,42.922 L25.033,43.027 L25.138,43.027 L25.138,43.133 L25.243,43.133 L25.243,43.238 L25.348,43.238 L25.348,43.344 L25.454,43.344 L25.454,43.449 L25.56,43.449 L25.56,43.556 L25.666,43.556 L25.666,43.66 L25.772,43.66 L25.772,43.766 L25.876,43.766 L25.876,43.871 L25.982,43.871 L25.982,43.976 L26.087,43.976 L26.087,44.081 L26.2,44.081 L26.2,44.186 L26.306,44.186 L26.306,44.3 L26.412,44.3 L26.412,44.406 L26.516,44.406 L26.516,44.511 L26.622,44.511 L26.622,44.617 L26.728,44.617 L26.728,44.721 L26.833,44.721 L26.833,44.828 L26.938,44.828 L26.938,44.933 L27.044,44.933 L27.044,45.038 L27.15,45.038 L27.15,45.143 L27.255,45.143 L27.255,45.249 L27.361,45.249 L27.361,45.355 L27.467,45.355 L27.467,45.46 L27.572,45.46 L27.572,45.565 L27.677,45.565 L27.677,45.671 L27.782,45.671 L27.782,45.775 L27.889,45.775 L27.889,45.881 L27.994,45.881 L27.994,45.987 L28.099,45.987 L28.099,46.1 L28.205,46.1 L28.205,46.206 L28.309,46.206 L28.309,46.312 L28.416,46.312 L28.416,46.416 L28.522,46.416 L28.522,46.522 L28.626,46.522 L28.626,46.627 L28.732,46.627 L28.732,46.732 L28.838,46.732 L28.838,46.838 L28.943,46.838 L28.943,46.944 L29.05,46.944 L29.05,47.049 L29.154,47.049 L29.154,47.154 L29.3,47.154 L29.3,47.259 L29.406,47.259 L29.406,47.365 L29.511,47.365 L29.511,47.471 L29.617,47.471 L29.617,47.576 L29.723,47.576 L29.723,47.681 L29.828,47.681 L29.828,47.787 L29.933,47.787 L29.933,47.9 L30.039,47.9 L30.039,48.005 L30.145,48.005 L30.145,48.11 L30.25,48.11 L30.25,48.215 L30.355,48.215 L30.355,48.32 L30.461,48.32 L30.461,48.426 L30.565,48.426 L30.565,48.532 L30.672,48.532 L30.672,48.637 L30.778,48.637 L30.778,48.743 L30.884,48.743 L30.884,48.847 L30.988,48.847 L30.988,48.953 L31.094,48.953 L31.094,49.1 L31.2,49.1 L31.2,49.206 L31.306,49.206 L31.306,49.312 L31.41,49.312 L31.41,49.416 L31.516,49.416 L31.516,49.522 L31.621,49.522 L31.621,49.627 L31.726,49.627 L31.726,49.734 L31.832,49.734 L31.832,49.838 L31.938,49.838 L31.938,49.944 L32.045,49.944 L32.045,50.049 L32.149,50.049 L32.149,50.155 L32.255,50.155 L32.255,50.259 L32.36,50.259 L32.36,50.366 L32.465,50.366 L32.465,50.471 L32.571,50.471 L32.571,50.576 L32.677,50.576 L32.677,50.681 L32.782,50.681 L32.782,50.787 L32.887,50.787 L32.887,50.9 L32.993,50.9 L32.993,51.005 L33.099,51.005 L33.099,51.11 L33.204,51.11 L33.204,51.215 L33.31,51.215 L33.31,51.322 L33.416,51.322 L33.416,51.427 L33.521,51.427 L33.521,51.532 L33.626,51.532 L33.626,51.637 L33.732,51.637 L33.732,51.743 L33.838,51.743 L33.838,51.847 L33.942,51.847 L33.942,51.953 L34.048,51.953 L34.048,52.059 L34.154,52.059 L34.154,52.164 L34.258,52.164 L34.258,52.269 L34.365,52.269 L34.365,52.374 L34.47,52.374 L34.47,52.481 L34.6,52.481 L34.6,52.586 L34.704,52.586 L34.704,52.7 L34.81,52.7 L34.81,52.804 L34.915,52.804 L34.915,52.91 L35.02,52.91 L35.02,53.016 L35.126,53.016 L35.126,53.121 L35.232,53.121 L35.232,53.226 L35.337,53.226 L35.337,53.331 L35.444,53.331 L35.444,53.438 L35.548,53.438 L35.548,53.542 L35.652,53.542 L35.652,53.648 L35.759,53.648 L35.759,53.753 L35.865,53.753 L35.865,53.858 L35.971,53.858 L35.971,53.964 L36.076,53.964 L36.076,54.07 L36.181,54.07 L36.181,54.175 L36.287,54.175 L36.287,54.28 L36.4,54.28 L36.4,54.387 L36.504,54.387 L36.504,54.491 L36.61,54.491 L36.61,54.597 L36.716,54.597 L36.716,54.702 L36.822,54.702 L36.822,54.807 L36.926,54.807 L36.926,54.913 L37.033,54.913 L37.033,55.017 L37.137,55.017 L37.137,55.124 L37.243,55.124 L37.243,55.229 L37.349,55.229 L37.349,55.334 L37.455,55.334 L37.455,55.44 L37.595,55.44 L37.595,55.546 L37.702,55.546 L37.702,55.651 L37.807,55.651 L37.807,55.756 L37.912,55.756 L37.912,55.861 L38.017,55.861 L38.017,55.966 L38.123,55.966 L38.123,56.072 L38.229,56.072 L38.229,56.178 L38.334,56.178 L38.334,56.283 L38.44,56.283 L38.44,56.388 L38.546,56.388 L38.546,56.494 L38.651,56.494 L38.651,56.599 L38.756,56.599 L38.756,56.705 L38.862,56.705 L38.862,56.81 L38.968,56.81 L38.968,56.915 L39.073,56.915 L39.073,57.021 L39.178,57.021 L39.178,57.127 L39.284,57.127 L39.284,57.231 L39.39,57.231 L39.39,57.337 L39.495,57.337 L39.495,57.442 L39.6,57.442 L39.6,57.549 L39.706,57.549 L39.706,57.653 L39.811,57.653 L39.811,57.759 L39.917,57.759 L39.917,57.864 L40.022,57.864 L40.022,57.969 L40.127,57.969 L40.127,58.1 L40.234,58.1 L40.234,58.204 L40.339,58.204 L40.339,58.31 L40.444,58.31 L40.444,58.415 L40.551,58.415 L40.551,58.52 L40.655,58.52 L40.655,58.626 L40.761,58.626 L40.761,58.732 L40.866,58.732 L40.866,58.837 L40.972,58.837 L40.972,58.942 L41.078,58.942 L41.078,59.047 L41.183,59.047 L41.183,59.153 L41.288,59.153 L41.288,59.259 L41.394,59.259 L41.394,59.364 L41.5,59.364 L41.5,59.469 L41.605,59.469 L41.605,59.575 L41.71,59.575 L41.71,59.679 L41.816,59.679 L41.816,59.786 L41.922,59.786 L41.922,59.891 L42.026,59.891 L42.026,59.996 L42.132,59.996 L42.132,60.101 L42.239,60.101 L42.239,60.207 L42.344,60.207 L42.344,60.313 L42.449,60.313 L42.449,60.418 L42.555,60.418 L42.555,60.523 L42.659,60.523 L42.659,60.628 L42.766,60.628 L42.766,60.734 L42.871,60.734 L42.871,60.9 L42.976,60.9 L42.976,61.005 L43.083,61.005 L43.083,61.11 L43.188,61.11 L43.188,61.216 L43.293,61.216 L43.293,61.322 L43.399,61.322 L43.399,61.427 L43.504,61.427 L43.504,61.532 L43.61,61.532 L43.61,61.637 L43.715,61.637 L43.715,61.743 L43.82,61.743 L43.82,61.849 L43.926,61.849 L43.926,61.953 L44.032,61.953 L44.032,62.059 L44.137,62.059 L44.137,62.164 L44.242,62.164 L44.242,62.271 L44.348,62.271 L44.348,62.375 L44.454,62.375 L44.454,62.481 L44.559,62.481 L44.559,62.586 L44.664,62.586 L44.664,62.7 L44.771,62.7 L44.771,62.804 L44.875,62.804 L44.875,62.91 L44.981,62.91 L44.981,63.016 L45.087,63.016 L45.087,63.121 L45.193,63.121 L45.193,63.226 L45.298,63.226 L45.298,63.332 L45.403,63.332 L45.403,63.438 L45.508,63.438 L45.508,63.543 L45.613,63.543 L45.613,63.649 L45.719,63.649 L45.719,63.753 L45.825,63.753 L45.825,63.859 L45.931,63.859 L45.931,63.965 L46.037,63.965 L46.037,64.07 L46.142,64.07 L46.142,64.175 L46.247,64.175 L46.247,64.281 L46.352,64.281 L46.352,64.385 L46.458,64.385 L46.458,64.5 L46.564,64.5 L46.564,64.605 L46.669,64.605 L46.669,64.71 L46.774,64.71 L46.774,64.815 L46.88,64.815 L46.88,64.921 L46.986,64.921 L46.986,65.027 L47.091,65.027 L47.091,65.132 L47.196,65.132 L47.196,65.237 L47.303,65.237 L47.303,65.342 L47.408,65.342 L47.408,65.448 L47.513,65.448 L47.513,65.554 L47.619,65.554 L47.619,65.659 L47.725,65.659 L47.725,65.764 L47.83,65.764 L47.83,65.87 L47.935,65.87 L47.935,65.976 L48.041,65.976 L48.041,66.08 L48.147,66.08 L48.147,66.186 L48.252,66.186 L48.252,66.291 L48.357,66.291 L48.357,66.397 L48.462,66.397 L48.462,66.503 L48.568,66.503 L48.568,66.607 L48.674,66.607 L48.674,66.713 L48.78,66.713 L48.78,66.818 L48.886,66.818 L48.886,66.923 L48.99,66.923 L48.99,67.029 L49.096,67.029 L49.096,67.135 L49.201,67.135 L49.201,67.24 L49.306,67.24 L49.306,67.346 L49.412,67.346 L49.412,67.45 L49.518,67.45 L49.518,67.556 L49.623,67.556 L49.623,67.662 L49.729,67.662 L49.729,67.767 L49.835,67.767 L49.835,67.872 L49.94,67.872 L49.94,67.978 L50.045,67.978 L50.045,68.1 L50.151,68.1 L50.151,68.205 L50.257,68.205 L50.257,68.31 L50.362,68.31 L50.362,68.415 L50.467,68.415 L50.467,68.521 L50.573,68.521 L50.573,68.627 L50.679,68.627 L50.679,68.732 L50.784,68.732 L50.784,68.837 L50.889,68.837 L50.889,68.943 L50.996,68.943 L50.996,69.047 L51.101,69.047 L51.101,69.153 L51.206,69.153 L51.206,69.259 L51.311,69.259 L51.311,69.364 L51.416,69.364 L51.416,69.469 L51.523,69.469 L51.523,69.575 L51.628,69.575 L51.628,69.679 L51.8,69.679 L51.8,69.786 L51.904,69.786 L51.904,69.891 L52.01,69.891 L52.01,69.996 L52.116,69.996 L52.116,70.102 L52.221,70.102 L52.221,70.208 L52.327,70.208 L52.327,70.313 L52.433,70.313 L52.433,70.418 L52.538,70.418 L52.538,70.523 L52.643,70.523 L52.643,70.628 L52.749,70.628 L52.749,70.734 L52.855,70.734 L52.855,70.84 L52.96,70.84 L52.96,71 L58.96,71 L58.96,57 L62.96,57 L63.96,52 L63.833,52 L63.854,51.895 L63.73,51.895 L63.751,51.789 L63.623,51.789 L63.644,51.685 L63.515,51.685 L63.536,51.579 L63.407,51.579 L63.428,51.473 L63.3,51.473 L63.321,51.368 L63.194,51.368 L63.215,51.262 L63.087,51.262 L63.108,51.156 L63.048,51.156 L63.069,51.051 L62.942,51.051 L62.963,50.946 L62.835,50.946 L62.856,50.841 L62.73,50.841 L62.751,50.736 L62.623,50.736 L62.644,50.63 L62.515,50.63 L62.536,50.524 L62.408,50.524 L62.429,50.419 L62.302,50.419 L62.323,50.314 L62.195,50.314 L62.216,50.208 L62.088,50.208 L62.109,50.102 L61.98,50.102 L62.001,49.998 L61.88,49.998 L61.901,49.892 L61.774,49.892 L61.795,49.787 L61.667,49.787 L61.688,49.681 L61.559,49.681 L61.58,49.575 L61.452,49.575 L61.473,49.47 L61.346,49.47 L61.367,49.365 L61.239,49.365 L61.26,49.259 L61.132,49.259 L61.153,49.155 L61.024,49.155 L61.045,49.049 L60.917,49.049 L60.938,48.943 L60.811,48.943 L60.832,48.838 L60.704,48.838 L60.725,48.732 L60.596,48.732 L60.617,48.628 L60.489,48.628 L60.51,48.521 L60.383,48.521 L60.404,48.416 L60.275,48.416 L60.296,48.311 L60.169,48.311 L60.19,48.206 L60.063,48.206 L60.084,48.1 L59.956,48.1 L59.977,47.994 L59.848,47.994 L59.869,47.889 L59.741,47.889 L59.762,47.784 L59.635,47.784 L59.656,47.679 L59.528,47.679 L59.549,47.574 L59.42,47.574 L59.441,47.468 L59.312,47.468 L59.333,47.362 L59.22,47.362 L59.241,47.257 L59.137,47.257 C59.407,46.305 60.253,46 62.029,46 Z" id="Shape" fill="url(#linearGradient-4)" fill-rule="nonzero" opacity="0.5" mask="url(#mask-3)"></path>
                    </g>
                </g>
                <path d="M31,25 L32,20 L27,20.001 L27,16 C27,14.456 27.784,14 30,14 L32,14 L32,9 C32,9 29.95,9 28,9 C23.928,9 21,11.435 21,16 L21,20 L16,20 L16,25 L21,25 L21,39 L27,39 L27,25 L31,25 Z" id="f_1_" fill="#FFFFFF" fill-rule="nonzero"></path>
            </g>
        </g>
    </g>
</svg>