<?xml version="1.0" encoding="UTF-8"?>
<svg width="128px" height="128px" viewBox="0 0 128 128" version="1.1" xmlns="http://www.w3.org/2000/svg" xmlns:xlink="http://www.w3.org/1999/xlink">
    <!-- Generator: Sketch 46.2 (44496) - http://www.bohemiancoding.com/sketch -->
    <title>item2</title>
    <desc>Created with Sketch.</desc>
    <defs></defs>
    <g id="Page-1" stroke="none" stroke-width="1" fill="none" fill-rule="evenodd">
        <g id="BENEFICIOS" transform="translate(-576.000000, -81.000000)">
            <g id="item2" transform="translate(576.000000, 81.000000)">
                <circle id="Oval-2-Copy" fill="#009BED" cx="64" cy="64" r="64"></circle>
                <g id="Stop" transform="translate(22.000000, 22.000000)">
                    <polygon id="Stroke-1" stroke="#FFFFFF" stroke-width="2" stroke-linecap="round" stroke-linejoin="round" points="24.8961289 85 0 60.1038711 0 24.8961289 24.8961289 0 60.1038711 0 85 24.8961289 85 60.1038711 60.1038711 85"></polygon>
                    <path d="M61.570088,56.6025916 C61.570088,67.2357391 53.014741,75.8869783 42.5005462,75.8869783 C31.9841665,75.8869783 23.429912,67.2357391 23.429912,56.6025916 L23.429912,25.9128423 C23.429912,24.2159577 24.7955337,22.8339247 26.4736097,22.8339247 C28.1538707,22.8339247 29.5194924,24.2159577 29.5194924,25.9128423 L29.5194924,40.0877945 C28.3614452,40.4788734 27.2165079,40.9207705 26.0890506,41.4190094 C25.6028893,41.6333294 25.3811123,42.2066908 25.5930568,42.6983013 C25.7514689,43.0639711 26.1043456,43.2827101 26.4747022,43.2827101 C26.6036169,43.2827101 26.7336241,43.2561963 26.8592613,43.1998544 C31.8006269,41.0179878 37.0631868,39.9110357 42.5005462,39.9110357 C45.1323724,39.9110357 47.7641986,40.1772787 50.3228275,40.7020314 C50.8428562,40.8102962 51.3508675,40.4689307 51.4557473,39.9430733 C51.5617195,39.4172158 51.2252303,38.9035105 50.7052016,38.7974552 C49.6356466,38.5776114 48.5551667,38.4030621 47.4670393,38.270493 L47.4670393,16.1900027 C47.4670393,14.4920134 48.8337536,13.1110851 50.512922,13.1110851 C52.1920905,13.1110851 53.5577122,14.4920134 53.5577122,16.1900027 L53.5577122,38.9388622 C53.5577122,38.9907851 53.5653597,39.0404986 53.5719147,39.090212 C53.5631747,39.2956941 53.5577122,39.5044905 53.5577122,39.7188105 L53.5577122,49.3322806 C47.8745409,49.6272469 42.5573561,52.515044 39.1848167,57.1936289 C38.87127,57.626688 38.9652247,58.2354012 39.3945762,58.5513575 C39.5650058,58.6772982 39.7638403,58.738059 39.9604898,58.738059 C40.2565566,58.738059 40.5493459,58.5999662 40.738348,58.339247 C43.9393653,53.8981817 49.0904904,51.2467995 54.5191099,51.2467995 C55.0500637,51.2467995 55.4805076,50.8115309 55.4805076,50.274626 L55.4805076,39.7188105 C55.4805076,36.4598199 56.992524,33.0881455 60.3694334,32.9003392 C60.7583625,32.8782444 61.0882967,32.9798807 61.3035187,33.1864676 C61.4805032,33.3554932 61.570088,33.5896986 61.570088,33.8835601 L61.570088,47.8209927 C61.570088,47.9193148 61.5886605,48.0121132 61.6159729,48.1015973 L61.570088,48.115959 L61.570088,56.6025916 Z M31.4422878,16.1900027 C31.4422878,14.4920134 32.809002,13.1110851 34.487078,13.1110851 C36.1662464,13.1110851 37.5318682,14.4920134 37.5318682,16.1900027 L37.5318682,38.2682835 C35.4681406,38.5190601 33.4360955,38.9278148 31.4422878,39.4912335 L31.4422878,25.9128423 L31.4422878,24.2921849 L31.4422878,16.1900027 Z M39.4546636,12.1919393 C39.4546636,10.4950547 40.8213778,9.11412641 42.5005462,9.11412641 C44.1786222,9.11412641 45.5442439,10.4950547 45.5442439,12.1919393 L45.5442439,16.1900027 L45.5442439,38.0804772 C44.5314989,38.0053548 43.5165688,37.9666888 42.5005462,37.9666888 C41.4790612,37.9666888 40.4641311,38.0053548 39.4546636,38.0793725 L39.4546636,16.1900027 L39.4546636,12.1919393 Z M62.6254405,31.7735018 C62.0223819,31.1968261 61.1778815,30.9073836 60.2645536,30.9582017 C58.5143728,31.0565238 56.7576371,31.8674049 55.4805076,33.4516058 L55.4805076,16.1900027 C55.4805076,13.420413 53.251813,11.1667382 50.512922,11.1667382 C49.3657998,11.1667382 48.3093548,11.5611313 47.4670393,12.2228721 L47.4670393,12.1919393 C47.4670393,9.42234959 45.2383447,7.1686747 42.5005462,7.1686747 C39.7605628,7.1686747 37.5318682,9.42234959 37.5318682,12.1919393 L37.5318682,12.2228721 C36.6906452,11.5611313 35.6331077,11.1667382 34.487078,11.1667382 C31.748187,11.1667382 29.5194924,13.420413 29.5194924,16.1900027 L29.5194924,21.9457116 C28.6771769,21.2839708 27.6207319,20.8895777 26.4736097,20.8895777 C23.7358112,20.8895777 21.5060241,23.1432526 21.5060241,25.9128423 L21.5060241,56.6025916 C21.5060241,68.3084441 30.924444,77.8313253 42.5005462,77.8313253 C54.075556,77.8313253 63.4939759,68.3084441 63.4939759,56.6025916 L63.4939759,47.8209927 L63.4939759,38.9388622 L63.4939759,33.8835601 C63.4939759,33.0583174 63.1847991,32.3093019 62.6254405,31.7735018 L62.6254405,31.7735018 Z" id="Fill-3" fill="#FFFFFF"></path>
                </g>
            </g>
        </g>
    </g>
</svg>