<?xml version="1.0" encoding="UTF-8"?>
<svg width="128px" height="128px" viewBox="0 0 128 128" version="1.1" xmlns="http://www.w3.org/2000/svg" xmlns:xlink="http://www.w3.org/1999/xlink">
    <!-- Generator: Sketch 46.2 (44496) - http://www.bohemiancoding.com/sketch -->
    <title>item1</title>
    <desc>Created with Sketch.</desc>
    <defs></defs>
    <g id="Page-1" stroke="none" stroke-width="1" fill="none" fill-rule="evenodd">
        <g id="BENEFICIOS" transform="translate(-174.000000, -81.000000)">
            <g id="item1" transform="translate(174.000000, 81.000000)">
                <circle id="Oval-2" fill="#009BED" cx="64" cy="64" r="64"></circle>
                <g id="Agua" transform="translate(40.000000, 31.000000)" stroke="#FFFFFF" stroke-width="2.133" stroke-linecap="round" stroke-linejoin="round">
                    <path d="M18.5215594,19.14495 C18.5215594,24.2403562 14.3903719,28.3715437 9.29496562,28.3715437 C4.19955937,28.3715437 0.068371875,24.2403562 0.068371875,19.14495 C0.068371875,14.0495437 9.29496562,0.0688875 9.29496562,0.0688875 C9.29496562,0.0688875 18.5215594,14.0495437 18.5215594,19.14495 Z" id="Stroke-1"></path>
                    <path d="M47.6952094,35.8736812 C47.6952094,40.9690875 43.5640219,45.100275 38.4686156,45.100275 C33.3732094,45.100275 29.2420219,40.9690875 29.2420219,35.8736812 C29.2420219,30.778275 38.4686156,16.7976187 38.4686156,16.7976187 C38.4686156,16.7976187 47.6952094,30.778275 47.6952094,35.8736812 Z" id="Stroke-3"></path>
                    <path d="M26.0366906,56.1697125 C26.0366906,61.2651187 21.9055031,65.3963062 16.8100969,65.3963062 C11.7146906,65.3963062 7.58350312,61.2651187 7.58350312,56.1697125 C7.58350312,51.0743062 16.8100969,37.09365 16.8100969,37.09365 C16.8100969,37.09365 26.0366906,51.0743062 26.0366906,56.1697125 Z" id="Stroke-5"></path>
                </g>
            </g>
        </g>
    </g>
</svg>