<?xml version="1.0" encoding="UTF-8"?>
<svg width="128px" height="128px" viewBox="0 0 128 128" version="1.1" xmlns="http://www.w3.org/2000/svg" xmlns:xlink="http://www.w3.org/1999/xlink">
    <!-- Generator: Sketch 46.2 (44496) - http://www.bohemiancoding.com/sketch -->
    <title>item3</title>
    <desc>Created with Sketch.</desc>
    <defs></defs>
    <g id="Page-1" stroke="none" stroke-width="1" fill="none" fill-rule="evenodd">
        <g id="BENEFICIOS" transform="translate(-978.000000, -81.000000)">
            <g id="item3" transform="translate(978.000000, 81.000000)">
                <circle id="Oval-2-Copy-2" fill="#009BED" cx="64" cy="64" r="64"></circle>
                <g id="Escudo" transform="translate(29.000000, 21.000000)" fill="#FFFFFF">
                    <path d="M7.58550714,13.0423095 C6.25045952,13.0423095 5.18979286,13.120119 4.43319762,13.2747143 C3.14319762,13.5368095 2.25862619,14.6824524 2.32926905,15.9980476 L4.24174524,48.5459762 C4.6778881,57.0190238 8.88267381,64.6996429 15.778031,69.6272381 L35.1792214,83.1947619 L54.5896262,69.6200714 C61.475769,64.6996429 65.6805548,57.0190238 66.1156738,48.5551905 L68.0291738,16.0041905 C68.097769,14.711119 67.18965,13.539881 65.9150071,13.2849524 C65.2229119,13.1457143 64.2728167,13.0760952 63.0913405,13.0760952 C62.8589357,13.0760952 62.6234595,13.0791667 62.3849119,13.0842857 C62.1443167,13.0894048 61.9026976,13.0914524 61.6621024,13.0914524 C54.8148643,13.0914524 48.26965,11.0499762 42.7349357,7.18919048 L36.2378405,2.6557619 C35.9276262,2.4397381 35.5651976,2.32609524 35.1874119,2.32609524 C34.8086024,2.32609524 34.4431024,2.4407619 34.1328881,2.65883333 L27.8251976,7.08988095 C22.2669357,10.9936667 15.7698405,13.0576667 9.03522143,13.0576667 C8.81305476,13.0576667 8.5908881,13.055619 8.36872143,13.0505 C8.10457857,13.045381 7.84248333,13.0423095 7.58550714,13.0423095 M35.1792214,85.7768095 C34.9457929,85.7768095 34.7133881,85.7061667 34.5127214,85.5669286 L14.4358167,71.5264048 C10.778769,68.9136429 7.71348333,65.4582857 5.56143571,61.5268571 C3.4093881,57.5944048 2.15010238,53.1500476 1.91974524,48.6739524 L0.00726904762,16.1280714 C-0.123778571,13.6862857 1.57984048,11.4820238 3.9694119,10.9957143 C4.87855476,10.8104048 6.09586429,10.7162143 7.58550714,10.7162143 C7.85886429,10.7162143 8.13631667,10.7192857 8.41684048,10.7254286 C14.885269,10.8605714 21.1540548,8.9337619 26.4891262,5.18661905 L32.7957929,0.755571429 C33.5001738,0.261071429 34.3274119,0 35.1874119,0 C36.0433167,0 36.8664595,0.25902381 37.567769,0.748404762 L44.0658881,5.28183333 C49.2084833,8.8692619 55.2929833,10.766381 61.6621024,10.7653571 C61.8863167,10.7653571 62.110531,10.7633095 62.3347452,10.7581905 C62.5906976,10.7530714 62.8435786,10.75 63.0913405,10.75 C64.4263881,10.75 65.5300548,10.836 66.3716262,11.0039048 C68.7714357,11.4840714 70.4822214,13.690381 70.3511738,16.1342143 L68.4386976,48.6821429 C68.2083405,53.1500476 66.9490548,57.5944048 64.7970071,61.5268571 C62.6449595,65.4582857 59.57865,68.9136429 55.9318405,71.5192381 L35.8457214,85.5669286 C35.6450548,85.7061667 35.41265,85.7768095 35.1792214,85.7768095" id="Fill-1"></path>
                    <path d="M31.0835738,59.2692548 L39.27405,59.2692548 L39.27405,48.00735 C39.27405,47.4422071 39.7327167,46.9835405 40.2978595,46.9835405 L51.5597643,46.9835405 L51.5597643,38.7930643 L40.2978595,38.7930643 C39.7327167,38.7930643 39.27405,38.3343976 39.27405,37.7692548 L39.27405,26.50735 L31.0835738,26.50735 L31.0835738,37.7692548 C31.0835738,38.3343976 30.6249071,38.7930643 30.0597643,38.7930643 L18.7978595,38.7930643 L18.7978595,46.9835405 L30.0597643,46.9835405 C30.6249071,46.9835405 31.0835738,47.4422071 31.0835738,48.00735 L31.0835738,59.2692548 Z M40.2978595,61.3168738 L30.0597643,61.3168738 C29.4946214,61.3168738 29.0359548,60.859231 29.0359548,60.2930643 L29.0359548,49.0311595 L17.77405,49.0311595 C17.2089071,49.0311595 16.7502405,48.5724929 16.7502405,48.00735 L16.7502405,37.7692548 C16.7502405,37.2041119 17.2089071,36.7454452 17.77405,36.7454452 L29.0359548,36.7454452 L29.0359548,25.4835405 C29.0359548,24.9183976 29.4946214,24.459731 30.0597643,24.459731 L40.2978595,24.459731 C40.8630024,24.459731 41.321669,24.9183976 41.321669,25.4835405 L41.321669,36.7454452 L52.5835738,36.7454452 C53.1487167,36.7454452 53.6073833,37.2041119 53.6073833,37.7692548 L53.6073833,48.00735 C53.6073833,48.5724929 53.1487167,49.0311595 52.5835738,49.0311595 L41.321669,49.0311595 L41.321669,60.2930643 C41.321669,60.859231 40.8630024,61.3168738 40.2978595,61.3168738 L40.2978595,61.3168738 Z" id="Fill-4"></path>
                </g>
            </g>
        </g>
    </g>
</svg>