<?xml version="1.0" encoding="UTF-8"?>
<svg width="56px" height="56px" viewBox="0 0 56 56" version="1.1" xmlns="http://www.w3.org/2000/svg" xmlns:xlink="http://www.w3.org/1999/xlink">
    <!-- Generator: Sketch 47.1 (45422) - http://www.bohemiancoding.com/sketch -->
    <title>skype</title>
    <desc>Created with Sketch.</desc>
    <defs>
        <linearGradient x1="100.004697%" y1="99.997958%" x2="34.6585665%" y2="34.6531621%" id="linearGradient-1">
            <stop stop-color="#FFFFFF" stop-opacity="0" offset="31.63%"></stop>
            <stop stop-color="#E9E9E9" stop-opacity="0.0504" offset="35.08%"></stop>
            <stop stop-color="#ACACAC" stop-opacity="0.2018" offset="45.43%"></stop>
            <stop stop-color="#787878" stop-opacity="0.3523" offset="55.72%"></stop>
            <stop stop-color="#4D4D4D" stop-opacity="0.4981" offset="65.69%"></stop>
            <stop stop-color="#2B2B2B" stop-opacity="0.6385" offset="75.28%"></stop>
            <stop stop-color="#131313" stop-opacity="0.7719" offset="84.41%"></stop>
            <stop stop-color="#050505" stop-opacity="0.8956" offset="92.86%"></stop>
            <stop stop-color="#000000" offset="100%"></stop>
        </linearGradient>
        <circle id="path-2" cx="24.029" cy="24" r="24"></circle>
        <linearGradient x1="96.277944%" y1="96.0668292%" x2="3.50570702%" y2="3.88692234%" id="linearGradient-4">
            <stop stop-color="#000000" stop-opacity="0" offset="52.55%"></stop>
            <stop stop-color="#000000" stop-opacity="0.1413" offset="59.26%"></stop>
            <stop stop-color="#000000" offset="100%"></stop>
        </linearGradient>
    </defs>
    <g id="Home" stroke="none" stroke-width="1" fill="none" fill-rule="evenodd">
        <g id="Vintix---Home-Copy" transform="translate(-207.000000, -2737.000000)">
            <g id="skype" transform="translate(207.000000, 2737.000000)">
                <polygon id="Circle_Shadow" fill="url(#linearGradient-1)" fill-rule="nonzero" opacity="0.2" points="56.029 56 56.029 22.059 41 7.029 7.059 40.971 22.088 56"></polygon>
                <circle id="Circle" fill="#01AEF2" fill-rule="nonzero" cx="24" cy="24" r="24"></circle>
                <g id="S_Shadow">
                    <g id="Clipped">
                        <mask id="mask-3" fill="white">
                            <use xlink:href="#path-2"></use>
                        </mask>
                        <g id="SVGID_1_"></g>
                        <path d="M70.113,59.497 C70.025,59.29 69.986,59.101 70.033,58.87 C70.372,57.193 70.384,55.516 70.105,53.826 C69.636,50.986 68.324,48.474 66.467,46.506 C66.433,46.469 66.396,46.438 66.361,46.401 C66.328,46.364 66.289,46.331 66.254,46.294 C66.221,46.258 66.184,46.226 66.15,46.19 C66.116,46.151 66.077,46.119 66.043,46.082 C66.009,46.045 65.971,46.013 65.936,45.976 C65.903,45.941 65.867,45.909 65.832,45.872 C65.797,45.835 65.76,45.803 65.727,45.767 C65.694,45.73 65.655,45.699 65.622,45.662 C65.587,45.624 65.548,45.59 65.512,45.553 C65.48,45.518 65.443,45.487 65.409,45.45 C65.373,45.411 65.334,45.376 65.297,45.338 C65.267,45.304 65.232,45.275 65.199,45.241 C65.164,45.202 65.125,45.168 65.089,45.13 C65.056,45.094 65.019,45.063 64.985,45.026 C64.951,44.989 64.912,44.955 64.876,44.918 C64.843,44.882 64.806,44.851 64.772,44.814 C64.735,44.777 64.696,44.742 64.66,44.704 C64.628,44.669 64.592,44.639 64.559,44.603 C64.524,44.566 64.485,44.531 64.451,44.495 C64.417,44.459 64.38,44.426 64.347,44.391 C64.312,44.354 64.275,44.321 64.24,44.284 C64.207,44.248 64.169,44.216 64.135,44.179 C64.102,44.142 64.063,44.111 64.03,44.074 C63.996,44.037 63.957,44.004 63.923,43.967 C63.889,43.93 63.851,43.899 63.818,43.862 C63.783,43.825 63.745,43.792 63.71,43.755 C63.677,43.719 63.64,43.689 63.606,43.651 C63.573,43.614 63.534,43.582 63.501,43.545 C63.467,43.508 63.429,43.476 63.396,43.439 C63.361,43.402 63.324,43.371 63.29,43.334 C63.256,43.297 63.218,43.265 63.184,43.229 C63.149,43.192 63.112,43.159 63.077,43.122 C63.044,43.086 63.007,43.054 62.973,43.018 C62.939,42.98 62.9,42.947 62.865,42.908 C62.832,42.874 62.796,42.843 62.761,42.807 C62.727,42.771 62.691,42.738 62.656,42.701 C62.623,42.665 62.585,42.632 62.551,42.596 C62.516,42.558 62.477,42.524 62.442,42.487 C62.409,42.45 62.37,42.417 62.335,42.38 C62.304,42.346 62.269,42.316 62.235,42.282 C62.2,42.241 62.159,42.206 62.122,42.167 C62.089,42.131 62.052,42.1 62.018,42.063 C61.984,42.027 61.947,41.996 61.914,41.959 C61.88,41.922 61.842,41.888 61.807,41.851 C61.774,41.816 61.737,41.783 61.703,41.747 C61.668,41.708 61.628,41.674 61.592,41.635 C61.56,41.601 61.524,41.57 61.49,41.534 C61.455,41.495 61.416,41.462 61.381,41.424 C61.347,41.389 61.31,41.357 61.277,41.32 C61.242,41.283 61.205,41.252 61.171,41.215 C61.137,41.178 61.099,41.146 61.065,41.11 C61.032,41.073 60.993,41.04 60.96,41.004 C60.926,40.967 60.888,40.935 60.854,40.898 C60.82,40.861 60.781,40.828 60.746,40.791 C60.713,40.755 60.676,40.723 60.642,40.687 C60.607,40.649 60.57,40.616 60.535,40.579 C60.502,40.544 60.465,40.512 60.431,40.475 C60.397,40.438 60.36,40.407 60.325,40.37 C60.292,40.333 60.254,40.301 60.22,40.264 C60.186,40.227 60.148,40.195 60.115,40.158 C60.082,40.123 60.045,40.091 60.011,40.054 C59.976,40.015 59.936,39.98 59.9,39.942 C59.868,39.908 59.831,39.877 59.797,39.839 C59.763,39.802 59.725,39.769 59.69,39.733 C59.657,39.695 59.618,39.662 59.583,39.627 C59.551,39.591 59.515,39.56 59.48,39.523 C59.446,39.486 59.407,39.451 59.37,39.414 C59.337,39.377 59.301,39.345 59.266,39.309 C59.231,39.271 59.192,39.239 59.157,39.2 C59.124,39.165 59.087,39.135 59.053,39.098 C59.019,39.06 58.98,39.026 58.946,38.989 C58.913,38.954 58.876,38.923 58.842,38.886 C58.808,38.849 58.77,38.815 58.735,38.778 C58.701,38.741 58.664,38.71 58.629,38.673 C58.595,38.635 58.556,38.602 58.521,38.564 C58.489,38.529 58.452,38.498 58.417,38.46 C58.384,38.424 58.346,38.391 58.312,38.355 C58.277,38.317 58.24,38.285 58.205,38.248 C58.172,38.211 58.134,38.18 58.101,38.144 C58.067,38.107 58.029,38.075 57.995,38.038 C57.962,38.001 57.923,37.97 57.89,37.933 C57.856,37.896 57.818,37.865 57.785,37.828 C57.75,37.791 57.711,37.758 57.676,37.72 C57.645,37.685 57.609,37.655 57.574,37.619 C57.537,37.578 57.496,37.543 57.459,37.502 C57.43,37.471 57.396,37.44 57.364,37.408 C57.326,37.367 57.285,37.33 57.246,37.291 C57.215,37.256 57.181,37.227 57.148,37.192 C57.113,37.154 57.074,37.121 57.039,37.084 C57.004,37.045 56.967,37.013 56.933,36.977 C56.9,36.941 56.863,36.909 56.829,36.873 C56.794,36.834 56.755,36.799 56.72,36.762 C56.687,36.727 56.651,36.696 56.616,36.66 C56.583,36.623 56.546,36.59 56.512,36.554 C56.477,36.516 56.438,36.483 56.402,36.445 C56.369,36.409 56.332,36.378 56.298,36.341 C56.263,36.304 56.224,36.27 56.189,36.233 C56.157,36.198 56.123,36.168 56.089,36.132 C56.052,36.094 56.012,36.058 55.975,36.019 C55.943,35.984 55.907,35.953 55.872,35.917 C55.837,35.88 55.8,35.846 55.765,35.809 C55.731,35.772 55.693,35.739 55.658,35.703 C55.625,35.668 55.59,35.636 55.554,35.599 C55.52,35.562 55.482,35.528 55.447,35.492 C55.414,35.455 55.375,35.422 55.342,35.386 C55.308,35.349 55.269,35.316 55.234,35.279 C55.202,35.243 55.165,35.212 55.13,35.175 C55.095,35.137 55.054,35.102 55.019,35.064 C54.987,35.029 54.951,34.998 54.917,34.962 C54.882,34.925 54.845,34.893 54.811,34.856 C54.777,34.819 54.739,34.787 54.705,34.75 C54.672,34.713 54.633,34.682 54.6,34.645 C54.566,34.608 54.528,34.576 54.494,34.54 C54.46,34.503 54.421,34.47 54.388,34.433 C54.354,34.397 54.316,34.364 54.282,34.327 C54.248,34.291 54.211,34.258 54.176,34.223 C54.144,34.187 54.107,34.155 54.072,34.119 C54.039,34.083 54,34.048 53.965,34.011 C53.932,33.976 53.895,33.944 53.861,33.907 C53.826,33.869 53.787,33.835 53.751,33.798 C53.72,33.763 53.687,33.735 53.654,33.7 C53.585,33.626 53.508,33.557 53.436,33.483 C53.401,33.445 53.363,33.413 53.328,33.376 C53.294,33.339 53.257,33.306 53.224,33.271 C53.19,33.234 53.152,33.2 53.117,33.164 C53.084,33.127 53.045,33.094 53.012,33.059 C52.978,33.022 52.94,32.989 52.905,32.952 C52.871,32.915 52.833,32.882 52.8,32.847 C52.767,32.812 52.73,32.78 52.696,32.743 C52.662,32.706 52.625,32.673 52.59,32.636 C52.555,32.599 52.518,32.567 52.484,32.53 C52.45,32.493 52.412,32.461 52.378,32.424 C52.345,32.387 52.306,32.356 52.273,32.319 C52.239,32.282 52.201,32.251 52.167,32.214 C52.133,32.175 52.094,32.142 52.059,32.106 C52.027,32.07 51.99,32.039 51.955,32.003 C51.92,31.964 51.881,31.929 51.846,31.892 C51.813,31.857 51.776,31.825 51.742,31.788 C51.708,31.751 51.671,31.72 51.636,31.683 C51.603,31.647 51.566,31.615 51.532,31.579 C51.498,31.541 51.459,31.508 51.424,31.471 C51.391,31.434 51.352,31.401 51.318,31.364 C51.285,31.329 51.249,31.298 51.215,31.262 C51.18,31.223 51.139,31.189 51.104,31.151 C51.072,31.115 51.035,31.084 51,31.047 C50.967,31.01 50.928,30.977 50.895,30.942 C50.862,30.906 50.825,30.874 50.791,30.838 C50.755,30.799 50.716,30.764 50.679,30.725 C50.648,30.69 50.611,30.659 50.576,30.622 C50.543,30.586 50.507,30.555 50.472,30.518 C50.435,30.479 50.396,30.444 50.359,30.405 C50.327,30.37 50.291,30.341 50.257,30.305 C50.222,30.266 50.183,30.232 50.148,30.194 C50.115,30.159 50.079,30.128 50.044,30.092 C50.011,30.055 49.972,30.022 49.937,29.985 C49.904,29.948 49.866,29.915 49.832,29.878 C49.797,29.841 49.76,29.808 49.725,29.772 C49.69,29.734 49.652,29.701 49.618,29.664 C49.585,29.629 49.548,29.598 49.514,29.56 C49.479,29.524 49.442,29.492 49.408,29.455 C49.374,29.418 49.336,29.387 49.302,29.35 C49.269,29.313 49.23,29.281 49.197,29.245 C49.162,29.207 49.123,29.173 49.088,29.136 C49.057,29.101 49.02,29.071 48.986,29.034 C48.952,28.997 48.913,28.964 48.879,28.927 C48.844,28.888 48.805,28.855 48.77,28.818 C48.739,28.784 48.703,28.753 48.668,28.716 C48.633,28.677 48.594,28.644 48.557,28.605 C48.524,28.569 48.485,28.536 48.452,28.5 C48.419,28.465 48.384,28.434 48.348,28.396 C48.315,28.36 48.276,28.327 48.242,28.29 C48.207,28.252 48.167,28.219 48.132,28.18 C48.099,28.145 48.064,28.115 48.029,28.078 C47.995,28.04 47.956,28.008 47.921,27.971 C47.89,27.934 47.853,27.904 47.817,27.867 C47.782,27.828 47.743,27.793 47.707,27.756 C47.673,27.719 47.636,27.688 47.603,27.652 C47.571,27.617 47.535,27.586 47.5,27.549 C47.464,27.51 47.423,27.475 47.386,27.436 C47.355,27.402 47.321,27.372 47.287,27.336 C47.251,27.297 47.211,27.262 47.174,27.223 C47.142,27.188 47.105,27.156 47.07,27.119 C47.037,27.083 47.001,27.051 46.966,27.015 C46.933,26.978 46.894,26.944 46.859,26.907 C46.825,26.869 46.786,26.836 46.751,26.799 C46.719,26.764 46.682,26.731 46.647,26.695 C46.612,26.657 46.575,26.624 46.539,26.586 C46.506,26.551 46.47,26.52 46.435,26.482 C46.402,26.445 46.366,26.414 46.331,26.378 C46.296,26.34 46.257,26.307 46.222,26.268 C46.189,26.233 46.152,26.201 46.118,26.164 C46.084,26.127 46.045,26.094 46.012,26.057 C45.979,26.022 45.942,25.99 45.908,25.953 C45.873,25.915 45.834,25.881 45.799,25.844 C45.767,25.807 45.728,25.776 45.695,25.74 C45.664,25.705 45.627,25.675 45.593,25.639 C45.556,25.598 45.517,25.563 45.478,25.522 C45.445,25.487 45.408,25.455 45.374,25.418 C45.343,25.385 45.309,25.354 45.275,25.319 C45.238,25.28 45.197,25.244 45.161,25.205 C45.128,25.169 45.09,25.137 45.057,25.101 C45.026,25.066 44.989,25.035 44.955,24.998 C44.919,24.959 44.879,24.925 44.842,24.886 C44.809,24.849 44.772,24.818 44.738,24.782 C44.704,24.746 44.668,24.715 44.634,24.678 C44.6,24.641 44.563,24.609 44.53,24.573 C44.495,24.535 44.456,24.501 44.421,24.464 C44.388,24.429 44.353,24.398 44.317,24.362 C44.282,24.323 44.243,24.288 44.207,24.25 C44.174,24.214 44.136,24.182 44.103,24.146 C44.07,24.109 44.031,24.076 43.997,24.039 C43.964,24.003 43.927,23.971 43.893,23.935 C43.86,23.897 43.821,23.864 43.786,23.827 C43.753,23.791 43.717,23.76 43.682,23.724 C43.648,23.686 43.609,23.651 43.572,23.613 C43.54,23.577 43.504,23.546 43.469,23.511 C43.435,23.474 43.398,23.441 43.363,23.404 C43.328,23.366 43.289,23.332 43.254,23.295 C43.221,23.259 43.184,23.227 43.15,23.191 C43.117,23.154 43.079,23.122 43.045,23.086 C43.011,23.049 42.973,23.016 42.94,22.98 C42.905,22.943 42.868,22.91 42.834,22.874 C42.8,22.836 42.762,22.803 42.728,22.767 C42.693,22.73 42.656,22.697 42.621,22.66 C42.589,22.624 42.552,22.593 42.517,22.558 C42.484,22.52 42.445,22.487 42.41,22.449 C42.375,22.411 42.336,22.377 42.3,22.339 C42.27,22.304 42.233,22.274 42.199,22.24 C42.166,22.202 42.127,22.168 42.092,22.131 C42.058,22.093 42.02,22.06 41.985,22.022 C41.952,21.986 41.915,21.954 41.881,21.918 C41.847,21.88 41.808,21.847 41.773,21.81 C41.74,21.773 41.701,21.741 41.668,21.704 C41.635,21.667 41.597,21.635 41.564,21.599 C41.529,21.561 41.49,21.527 41.455,21.49 C41.423,21.455 41.387,21.425 41.353,21.39 C41.318,21.352 41.281,21.318 41.244,21.28 C41.21,21.242 41.172,21.208 41.136,21.171 C41.103,21.134 41.065,21.102 41.032,21.066 C40.999,21.029 40.961,20.997 40.927,20.961 C40.894,20.924 40.857,20.891 40.822,20.855 C40.789,20.819 40.752,20.786 40.718,20.751 C40.684,20.713 40.646,20.68 40.612,20.643 C40.577,20.605 40.538,20.571 40.503,20.534 C40.47,20.499 40.434,20.467 40.399,20.432 C40.366,20.395 40.327,20.362 40.292,20.325 C40.258,20.287 40.22,20.254 40.185,20.217 C40.152,20.18 40.115,20.149 40.08,20.113 C40.048,20.076 40.01,20.044 39.976,20.008 C39.942,19.97 39.905,19.937 39.87,19.9 C39.835,19.864 39.799,19.831 39.765,19.795 C39.731,19.757 39.692,19.724 39.658,19.687 C39.625,19.651 39.588,19.619 39.554,19.583 C39.52,19.546 39.482,19.513 39.448,19.476 C39.415,19.439 39.378,19.407 39.344,19.371 C39.31,19.334 39.272,19.301 39.238,19.265 C39.203,19.227 39.164,19.193 39.129,19.156 C39.097,19.12 39.061,19.089 39.026,19.054 C38.992,19.016 38.953,18.982 38.918,18.945 C38.885,18.909 38.848,18.877 38.814,18.841 C38.78,18.804 38.743,18.771 38.708,18.735 C38.675,18.697 38.636,18.664 38.601,18.626 C38.567,18.589 38.529,18.557 38.496,18.521 C38.463,18.485 38.426,18.453 38.392,18.417 C38.358,18.38 38.32,18.347 38.286,18.311 C38.253,18.274 38.214,18.241 38.181,18.204 C38.146,18.167 38.108,18.133 38.073,18.097 C38.041,18.06 38.002,18.028 37.969,17.992 C37.935,17.955 37.897,17.922 37.863,17.885 C37.829,17.848 37.792,17.816 37.759,17.78 C37.725,17.743 37.687,17.71 37.653,17.674 C37.619,17.637 37.58,17.604 37.547,17.567 C37.513,17.53 37.476,17.498 37.442,17.462 C37.408,17.425 37.37,17.392 37.337,17.355 C37.302,17.318 37.265,17.285 37.231,17.249 C37.196,17.211 37.157,17.177 37.123,17.14 C37.09,17.104 37.053,17.073 37.019,17.037 C36.985,17 36.946,16.967 36.912,16.93 C36.877,16.892 36.84,16.859 36.805,16.821 C36.772,16.785 36.735,16.754 36.701,16.719 C36.667,16.681 36.628,16.647 36.593,16.609 C36.56,16.573 36.522,16.541 36.488,16.505 C36.455,16.468 36.418,16.436 36.384,16.401 C36.35,16.363 36.311,16.329 36.276,16.292 C36.243,16.255 36.205,16.223 36.172,16.187 C36.139,16.15 36.101,16.118 36.067,16.082 C36.033,16.045 35.995,16.012 35.962,15.975 C35.927,15.938 35.89,15.905 35.855,15.868 C35.822,15.831 35.784,15.799 35.751,15.763 C35.716,15.726 35.677,15.693 35.644,15.656 C35.609,15.618 35.57,15.584 35.535,15.547 C35.502,15.511 35.465,15.48 35.431,15.444 C35.397,15.407 35.359,15.374 35.325,15.338 C35.291,15.3 35.254,15.267 35.219,15.231 C35.184,15.193 35.147,15.16 35.112,15.123 C35.078,15.087 35.042,15.054 35.007,15.018 C34.974,14.981 34.937,14.949 34.903,14.913 C34.869,14.876 34.832,14.844 34.799,14.808 C34.764,14.77 34.725,14.737 34.691,14.7 C31.682,11.439 27.195,9.634 22.534,10.264 C22.096,10.323 21.735,10.254 21.345,10.045 C18.196,8.363 14.345,8.941 11.784,11.455 C9.263,13.932 8.628,17.802 10.243,20.954 C10.413,21.286 10.466,21.585 10.389,21.954 C10.234,22.71 10.219,23.483 10.184,24.289 C10.211,24.739 10.219,25.226 10.27,25.708 C10.64,29.245 12.269,32.318 14.66,34.55 C14.697,34.584 14.73,34.621 14.766,34.655 C14.803,34.69 14.836,34.727 14.872,34.76 C14.909,34.795 14.942,34.832 14.978,34.866 C15.015,34.902 15.05,34.939 15.087,34.974 C15.123,35.009 15.156,35.046 15.192,35.078 C15.228,35.112 15.26,35.149 15.296,35.182 C15.332,35.215 15.364,35.252 15.4,35.286 C15.437,35.321 15.471,35.359 15.508,35.393 C15.545,35.428 15.578,35.467 15.615,35.5 C15.651,35.534 15.685,35.572 15.721,35.606 C15.757,35.64 15.791,35.677 15.827,35.712 C15.864,35.746 15.898,35.784 15.935,35.818 C15.971,35.852 16.003,35.887 16.039,35.922 C16.075,35.955 16.108,35.992 16.144,36.026 C16.18,36.058 16.212,36.095 16.248,36.13 C16.286,36.165 16.321,36.204 16.359,36.239 C16.395,36.273 16.427,36.309 16.463,36.343 C16.501,36.38 16.535,36.417 16.573,36.453 C16.608,36.486 16.64,36.522 16.676,36.556 C16.713,36.593 16.748,36.63 16.785,36.665 C16.821,36.698 16.853,36.735 16.889,36.769 C16.926,36.803 16.959,36.842 16.996,36.875 C17.032,36.91 17.066,36.947 17.102,36.981 C17.138,37.015 17.171,37.052 17.207,37.085 C17.243,37.119 17.276,37.156 17.313,37.19 C17.349,37.225 17.382,37.262 17.419,37.295 C17.456,37.33 17.49,37.368 17.528,37.403 C17.564,37.437 17.596,37.474 17.632,37.507 C17.669,37.542 17.702,37.578 17.739,37.613 C17.776,37.647 17.809,37.685 17.846,37.719 C17.883,37.754 17.917,37.791 17.954,37.826 C17.988,37.858 18.019,37.893 18.054,37.926 C18.092,37.963 18.128,38.002 18.166,38.039 C18.202,38.072 18.235,38.109 18.272,38.143 C18.307,38.175 18.338,38.212 18.374,38.246 C18.413,38.282 18.448,38.322 18.487,38.358 C18.522,38.391 18.554,38.427 18.59,38.461 C18.626,38.496 18.66,38.533 18.696,38.567 C18.733,38.602 18.766,38.639 18.803,38.673 C18.839,38.708 18.872,38.745 18.909,38.778 C18.945,38.812 18.978,38.85 19.015,38.883 C19.052,38.918 19.086,38.957 19.124,38.991 C19.159,39.025 19.191,39.061 19.227,39.095 C19.265,39.13 19.3,39.169 19.338,39.204 C19.373,39.237 19.405,39.273 19.441,39.307 C19.477,39.341 19.511,39.38 19.548,39.413 C19.584,39.448 19.617,39.485 19.654,39.519 C19.691,39.554 19.726,39.592 19.763,39.627 C19.798,39.66 19.829,39.695 19.864,39.729 C19.903,39.766 19.939,39.806 19.978,39.842 C20.011,39.873 20.041,39.907 20.075,39.94 C20.114,39.977 20.151,40.018 20.19,40.055 C20.225,40.088 20.257,40.123 20.292,40.157 C20.328,40.191 20.361,40.229 20.397,40.262 C20.435,40.297 20.471,40.336 20.509,40.373 C20.544,40.405 20.576,40.44 20.611,40.475 C20.648,40.51 20.682,40.547 20.72,40.582 C20.756,40.617 20.789,40.653 20.824,40.686 C20.86,40.72 20.893,40.757 20.929,40.79 C20.966,40.825 20.999,40.862 21.036,40.897 C21.073,40.932 21.106,40.969 21.143,41.004 C21.179,41.037 21.212,41.074 21.248,41.108 C21.286,41.144 21.32,41.183 21.358,41.218 C21.393,41.25 21.424,41.287 21.46,41.32 C21.497,41.355 21.531,41.394 21.569,41.428 C21.605,41.461 21.638,41.498 21.674,41.533 C21.711,41.566 21.744,41.604 21.78,41.638 C21.816,41.671 21.849,41.708 21.885,41.743 C21.922,41.777 21.956,41.815 21.993,41.85 C22.03,41.884 22.063,41.922 22.1,41.955 C22.137,41.99 22.171,42.029 22.208,42.063 C22.244,42.096 22.277,42.133 22.312,42.167 C22.348,42.2 22.381,42.237 22.417,42.271 C22.453,42.306 22.486,42.343 22.522,42.376 C22.56,42.413 22.594,42.45 22.632,42.485 C22.667,42.518 22.699,42.555 22.735,42.589 C22.772,42.623 22.807,42.662 22.844,42.697 C22.88,42.73 22.912,42.767 22.948,42.801 C22.984,42.835 23.017,42.872 23.053,42.907 C23.091,42.942 23.126,42.98 23.164,43.016 C23.199,43.05 23.232,43.086 23.268,43.12 C23.304,43.155 23.337,43.191 23.373,43.225 C23.41,43.26 23.443,43.297 23.479,43.33 C23.516,43.365 23.549,43.402 23.585,43.436 C23.623,43.471 23.657,43.509 23.694,43.544 C23.729,43.577 23.762,43.614 23.798,43.648 C23.835,43.683 23.869,43.721 23.905,43.755 C23.941,43.788 23.974,43.825 24.01,43.86 C24.046,43.893 24.079,43.93 24.115,43.964 C24.152,44 24.187,44.037 24.225,44.072 C24.261,44.107 24.294,44.143 24.33,44.177 C24.366,44.211 24.399,44.247 24.436,44.282 C24.472,44.315 24.505,44.353 24.541,44.386 C24.578,44.421 24.611,44.458 24.648,44.492 C24.684,44.527 24.719,44.566 24.756,44.599 C24.791,44.633 24.824,44.67 24.86,44.704 C24.896,44.737 24.929,44.774 24.964,44.808 C25.001,44.842 25.033,44.88 25.069,44.912 C25.106,44.949 25.139,44.986 25.176,45.021 C25.211,45.054 25.243,45.09 25.28,45.125 C25.318,45.16 25.353,45.199 25.39,45.236 C25.425,45.268 25.458,45.304 25.494,45.338 C25.53,45.373 25.563,45.41 25.599,45.445 C25.636,45.48 25.671,45.518 25.71,45.554 C25.744,45.587 25.776,45.623 25.813,45.658 C25.849,45.691 25.882,45.73 25.919,45.763 C25.956,45.798 25.989,45.836 26.026,45.87 C26.062,45.905 26.094,45.94 26.131,45.974 C26.166,46.009 26.2,46.046 26.237,46.081 C26.273,46.115 26.306,46.152 26.341,46.185 C26.376,46.218 26.409,46.255 26.445,46.289 C26.483,46.325 26.518,46.364 26.555,46.399 C26.59,46.432 26.623,46.468 26.659,46.503 C26.697,46.539 26.731,46.577 26.769,46.612 C26.805,46.645 26.836,46.682 26.873,46.716 C26.907,46.75 26.94,46.787 26.977,46.82 C27.015,46.855 27.049,46.894 27.088,46.93 C27.123,46.964 27.156,47.001 27.193,47.034 C27.229,47.069 27.261,47.106 27.298,47.139 C27.333,47.172 27.364,47.208 27.402,47.243 C27.439,47.277 27.47,47.314 27.507,47.347 C27.544,47.383 27.579,47.422 27.617,47.458 C27.653,47.491 27.685,47.528 27.721,47.562 C27.758,47.597 27.791,47.635 27.828,47.67 C27.862,47.703 27.894,47.739 27.931,47.773 C27.967,47.808 28.002,47.845 28.037,47.88 C28.074,47.915 28.108,47.953 28.146,47.987 C28.181,48.02 28.212,48.057 28.25,48.091 C28.287,48.127 28.322,48.165 28.36,48.201 C28.394,48.232 28.425,48.269 28.461,48.302 C28.5,48.338 28.535,48.377 28.572,48.413 C28.608,48.447 28.642,48.484 28.678,48.519 C28.712,48.551 28.745,48.587 28.781,48.622 C28.818,48.657 28.852,48.695 28.89,48.73 C28.925,48.765 28.958,48.801 28.995,48.835 C29.03,48.869 29.063,48.906 29.099,48.939 C29.136,48.976 29.17,49.013 29.209,49.049 C29.242,49.082 29.274,49.118 29.311,49.152 C29.347,49.187 29.381,49.224 29.416,49.257 C29.455,49.294 29.49,49.333 29.529,49.37 C29.562,49.401 29.592,49.434 29.627,49.468 C29.666,49.504 29.701,49.544 29.739,49.58 C29.775,49.614 29.807,49.649 29.844,49.684 C29.878,49.717 29.911,49.753 29.948,49.788 C29.985,49.824 30.021,49.864 30.06,49.899 C30.093,49.93 30.123,49.965 30.157,49.998 C30.196,50.035 30.232,50.075 30.271,50.11 C30.306,50.143 30.336,50.178 30.372,50.212 C30.409,50.247 30.442,50.285 30.479,50.319 C30.516,50.354 30.551,50.393 30.588,50.428 C30.623,50.461 30.654,50.497 30.691,50.532 C30.729,50.567 30.763,50.604 30.8,50.639 C30.836,50.673 30.869,50.711 30.904,50.744 C30.941,50.78 30.976,50.818 31.013,50.851 C31.048,50.886 31.081,50.922 31.117,50.955 C31.152,50.989 31.185,51.026 31.221,51.059 C31.257,51.094 31.29,51.131 31.327,51.165 C31.364,51.2 31.396,51.237 31.433,51.271 C31.469,51.306 31.502,51.343 31.539,51.376 C31.574,51.411 31.608,51.448 31.644,51.483 C31.681,51.516 31.714,51.555 31.751,51.588 C31.786,51.622 31.819,51.66 31.856,51.694 C31.892,51.728 31.926,51.765 31.963,51.8 C31.998,51.833 32.031,51.87 32.067,51.904 C32.104,51.938 32.137,51.975 32.174,52.01 C32.209,52.044 32.242,52.081 32.279,52.115 C32.315,52.15 32.348,52.187 32.385,52.22 C32.422,52.257 32.456,52.294 32.495,52.33 C32.528,52.362 32.559,52.398 32.596,52.431 C32.633,52.466 32.665,52.505 32.704,52.539 C32.739,52.573 32.771,52.61 32.808,52.643 C32.845,52.678 32.88,52.717 32.917,52.752 C32.954,52.786 32.987,52.823 33.022,52.857 C33.057,52.888 33.088,52.925 33.124,52.959 C33.163,52.996 33.2,53.036 33.239,53.073 C33.272,53.103 33.302,53.138 33.337,53.172 C33.376,53.208 33.411,53.248 33.45,53.285 C33.485,53.318 33.517,53.353 33.554,53.387 C33.591,53.422 33.624,53.461 33.661,53.494 C33.696,53.528 33.728,53.565 33.765,53.598 C33.801,53.633 33.833,53.67 33.87,53.704 C33.909,53.74 33.944,53.78 33.982,53.816 C34.015,53.847 34.046,53.882 34.081,53.914 C34.118,53.95 34.153,53.989 34.192,54.025 C34.228,54.06 34.261,54.097 34.297,54.13 C34.332,54.164 34.365,54.2 34.401,54.234 C34.438,54.268 34.472,54.305 34.508,54.34 C34.543,54.374 34.576,54.411 34.613,54.445 C34.65,54.48 34.682,54.517 34.719,54.55 C34.755,54.585 34.788,54.622 34.823,54.656 C34.862,54.692 34.896,54.731 34.934,54.766 C34.968,54.797 35,54.834 35.036,54.867 C35.073,54.903 35.108,54.941 35.145,54.977 C35.18,55.01 35.213,55.047 35.249,55.081 C35.286,55.116 35.319,55.153 35.355,55.187 C35.391,55.221 35.424,55.258 35.461,55.293 C35.496,55.326 35.529,55.364 35.566,55.397 C35.601,55.431 35.635,55.47 35.672,55.505 C35.706,55.537 35.739,55.573 35.775,55.608 C35.814,55.645 35.85,55.685 35.889,55.722 C35.924,55.755 35.956,55.79 35.992,55.824 C36.029,55.859 36.062,55.897 36.099,55.931 C36.135,55.964 36.167,56.001 36.203,56.035 C36.24,56.07 36.275,56.108 36.311,56.143 C36.347,56.177 36.38,56.214 36.417,56.247 C36.45,56.28 36.483,56.316 36.518,56.351 C36.558,56.388 36.594,56.429 36.634,56.466 C36.668,56.497 36.7,56.533 36.736,56.567 C36.773,56.602 36.806,56.64 36.843,56.673 C36.88,56.708 36.913,56.746 36.95,56.78 C36.985,56.813 37.015,56.848 37.052,56.882 C37.089,56.917 37.122,56.956 37.159,56.991 C37.196,57.026 37.229,57.063 37.266,57.098 C37.303,57.133 37.338,57.17 37.375,57.205 C37.41,57.238 37.443,57.275 37.479,57.309 C37.515,57.343 37.549,57.38 37.585,57.415 C37.621,57.448 37.654,57.485 37.691,57.519 C37.726,57.553 37.759,57.59 37.796,57.625 C37.832,57.659 37.864,57.696 37.901,57.73 C37.938,57.765 37.97,57.802 38.007,57.835 C38.043,57.87 38.076,57.908 38.113,57.943 C38.15,57.977 38.182,58.014 38.219,58.047 C38.255,58.082 38.289,58.119 38.325,58.153 C38.36,58.187 38.393,58.224 38.43,58.257 C38.466,58.292 38.498,58.329 38.535,58.362 C38.57,58.396 38.603,58.433 38.639,58.467 C38.676,58.502 38.709,58.539 38.746,58.574 C38.783,58.609 38.818,58.648 38.857,58.683 C38.892,58.716 38.922,58.751 38.959,58.785 C38.996,58.82 39.029,58.859 39.068,58.894 C39.103,58.927 39.134,58.962 39.172,58.998 C39.207,59.031 39.238,59.068 39.276,59.102 C39.313,59.137 39.347,59.176 39.384,59.211 C39.421,59.246 39.455,59.283 39.492,59.317 C39.527,59.352 39.56,59.389 39.597,59.423 C39.632,59.456 39.665,59.493 39.702,59.527 C39.739,59.563 39.774,59.602 39.813,59.637 C39.845,59.668 39.876,59.703 39.912,59.736 C39.95,59.772 39.983,59.812 40.022,59.847 C40.057,59.881 40.09,59.918 40.126,59.951 C40.162,59.985 40.195,60.022 40.232,60.056 C40.269,60.092 40.303,60.13 40.34,60.165 C40.374,60.196 40.405,60.231 40.441,60.265 C40.478,60.302 40.515,60.341 40.553,60.378 C40.588,60.411 40.62,60.446 40.656,60.481 C40.693,60.517 40.728,60.555 40.765,60.59 C40.801,60.622 40.833,60.659 40.869,60.694 C40.905,60.729 40.938,60.766 40.975,60.8 C41.01,60.835 41.043,60.872 41.08,60.905 C41.115,60.94 41.15,60.977 41.185,61.012 C41.222,61.047 41.256,61.084 41.293,61.119 C41.328,61.152 41.36,61.187 41.396,61.222 C41.435,61.259 41.469,61.298 41.508,61.332 C41.542,61.365 41.575,61.402 41.611,61.436 C41.646,61.47 41.679,61.507 41.715,61.541 C41.751,61.574 41.785,61.613 41.821,61.647 C41.858,61.681 41.891,61.719 41.928,61.754 C41.964,61.786 41.996,61.823 42.032,61.858 C42.068,61.893 42.101,61.931 42.138,61.965 C42.176,62.001 42.212,62.04 42.25,62.075 C42.284,62.107 42.313,62.142 42.349,62.175 C42.386,62.21 42.421,62.249 42.458,62.284 C42.494,62.317 42.526,62.354 42.563,62.388 C42.598,62.423 42.632,62.459 42.668,62.494 C42.704,62.529 42.738,62.565 42.773,62.599 C42.808,62.633 42.841,62.669 42.877,62.703 C42.916,62.74 42.952,62.781 42.991,62.818 C43.024,62.849 43.057,62.885 43.093,62.919 C43.129,62.953 43.162,62.99 43.199,63.025 C43.235,63.059 43.268,63.096 43.305,63.13 C43.34,63.165 43.373,63.202 43.41,63.235 C43.446,63.27 43.478,63.307 43.515,63.341 C43.552,63.376 43.585,63.412 43.621,63.447 C43.658,63.482 43.693,63.52 43.729,63.555 C43.764,63.588 43.796,63.624 43.832,63.658 C43.87,63.693 43.904,63.732 43.942,63.767 C43.977,63.8 44.01,63.837 44.046,63.871 C44.082,63.906 44.115,63.943 44.152,63.977 C44.188,64.012 44.221,64.049 44.258,64.083 C44.293,64.118 44.326,64.155 44.363,64.188 C44.4,64.223 44.433,64.261 44.47,64.296 C44.507,64.33 44.539,64.367 44.575,64.4 C44.611,64.434 44.643,64.471 44.68,64.505 C44.715,64.538 44.746,64.573 44.783,64.609 C44.819,64.643 44.852,64.681 44.891,64.716 C44.928,64.751 44.961,64.79 44.998,64.825 C45.035,64.86 45.069,64.897 45.105,64.931 C45.142,64.966 45.177,65.003 45.212,65.037 C45.246,65.07 45.278,65.105 45.314,65.138 C45.351,65.174 45.386,65.213 45.423,65.248 C45.458,65.281 45.489,65.316 45.526,65.352 C45.562,65.386 45.597,65.424 45.634,65.459 C45.671,65.494 45.703,65.531 45.74,65.564 C45.776,65.599 45.809,65.636 45.846,65.67 C45.881,65.705 45.915,65.743 45.952,65.778 C45.989,65.811 46.022,65.85 46.058,65.883 C46.095,65.917 46.126,65.953 46.162,65.987 C46.198,66.022 46.232,66.059 46.268,66.093 C46.303,66.127 46.336,66.164 46.373,66.197 C46.409,66.232 46.442,66.269 46.479,66.303 C49.544,69.226 53.899,70.747 58.468,70.032 C58.714,69.994 58.921,70.035 59.14,70.145 C60.661,70.912 62.292,71.098 63.938,70.833 C69.275,70.032 72.271,64.505 70.113,59.497 Z" id="Shape" fill="url(#linearGradient-4)" fill-rule="nonzero" opacity="0.4" mask="url(#mask-3)"></path>
                    </g>
                </g>
                <path d="M38.085,27.496 C37.996,27.289 37.957,27.1 38.004,26.869 C38.343,25.193 38.356,23.514 38.076,21.825 C36.849,14.384 29.84,9.167 22.388,10.175 C21.95,10.234 21.589,10.165 21.199,9.956 C18.05,8.274 14.199,8.852 11.638,11.366 C9.117,13.843 8.482,17.713 10.097,20.865 C10.267,21.197 10.32,21.496 10.243,21.865 C10.088,22.62 10.073,23.393 10.038,24.2 C10.065,24.648 10.073,25.136 10.124,25.619 C10.967,33.682 18.353,39.341 26.396,38.083 C26.642,38.045 26.849,38.086 27.068,38.195 C28.589,38.963 30.22,39.148 31.867,38.884 C37.246,38.031 40.242,32.504 38.085,27.496 Z M31.074,31.255 C30.172,32.283 29.034,32.942 27.743,33.313 C25.318,34.01 22.871,34.036 20.459,33.309 C18.264,32.647 16.645,31.288 16,29.007 C15.543,27.391 16.586,26.182 18.197,26.371 C18.892,26.453 19.35,26.874 19.676,27.454 C19.88,27.816 20.052,28.201 20.235,28.577 C20.834,29.805 21.797,30.497 23.166,30.646 C24.287,30.769 25.371,30.689 26.408,30.22 C26.808,30.036 27.164,29.786 27.454,29.451 C28.228,28.555 28.09,27.288 27.139,26.583 C26.218,25.901 25.117,25.722 24.039,25.479 C22.503,25.135 20.961,24.811 19.516,24.166 C18.022,23.5 16.809,22.533 16.418,20.845 C15.963,18.887 16.509,17.229 18.077,15.958 C19.461,14.837 21.127,14.475 22.85,14.324 C23.249,14.289 23.653,14.319 24.054,14.319 C25.646,14.276 27.198,14.486 28.635,15.219 C29.737,15.781 30.647,16.546 31.176,17.695 C31.436,18.258 31.561,18.858 31.393,19.457 C31.192,20.185 30.696,20.691 29.944,20.844 C29.163,21.003 28.434,20.879 27.942,20.152 C27.707,19.806 27.481,19.454 27.268,19.093 C26.596,17.948 25.637,17.311 24.275,17.315 C23.654,17.318 23.035,17.297 22.427,17.445 C21.88,17.577 21.38,17.804 20.965,18.189 C20.226,18.876 20.254,19.818 21.043,20.446 C21.563,20.859 22.177,21.09 22.814,21.251 C24.304,21.632 25.803,21.984 27.292,22.374 C28.104,22.586 28.877,22.904 29.628,23.281 C33.118,25.033 32.869,29.212 31.074,31.255 Z" id="S_2_" fill="#FFFFFF" fill-rule="nonzero"></path>
            </g>
        </g>
    </g>
</svg>