<?xml version="1.0" encoding="UTF-8"?>
<svg width="231px" height="48px" viewBox="0 0 231 48" version="1.1" xmlns="http://www.w3.org/2000/svg" xmlns:xlink="http://www.w3.org/1999/xlink">
    <!-- Generator: Sketch 46 (44423) - http://www.bohemiancoding.com/sketch -->
    <title>logoUmbrella2</title>
    <desc>Created with Sketch.</desc>
    <defs></defs>
    <g id="Home" stroke="none" stroke-width="1" fill="none" fill-rule="evenodd">
        <g id="Umbrella---Home" transform="translate(-152.000000, -1908.000000)">
            <g id="logoUmbrella2" transform="translate(152.000000, 1908.000000)">
                <text id="Umbrella" font-family="Helvetica-Bold, Helvetica" font-size="40" font-weight="bold" fill="#FFFFFF">
                    <tspan x="61" y="47">Umbrella</tspan>
                </text>
                <path d="M14.9829102,40.1196289 L1.27539062,43.1088867 C-0.0162760417,37.1541341 1.25309245,29.9339193 5.08349609,21.4482422 C8.91389974,12.9625651 15.3992513,6.77880859 24.5395508,2.89697266 C19.300293,7.96207682 15.800944,13.9402669 14.0415039,20.831543 C12.2820638,27.722819 12.5958659,34.152181 14.9829102,40.1196289 Z" id="Path-2" stroke="#FFFFFF" fill="#DC1F27"></path>
                <path d="M24.8842773,4.11230469 C31.7284305,5.94640818 36.9199995,7.85422503 40.4589844,9.83575524 C43.9979693,11.8172854 47.6758664,14.8756144 51.4926758,19.0107422 C54.076175,16.0709821 56.1258169,13.9352399 57.6416016,12.6035156 C59.1573862,11.2717913 61.3808563,9.65330176 64.3120117,7.74804688 C57.9295247,3.46614583 50.8172201,1.12906901 42.9750977,0.736816406 C35.1329753,0.344563802 29.1027018,1.46972656 24.8842773,4.11230469 Z" id="Path-3" stroke="#FFFFFF" fill="#FFD263"></path>
                <path d="M24.3759766,6.45507812 C24.195638,12.2239583 25.8164062,17.7236328 29.2382812,22.9541016 C32.6601562,28.1845703 36.4129232,32.2529297 40.496582,35.1591797 C41.8992111,30.3987906 43.1217046,26.9131135 44.1640625,24.7021484 C45.2064204,22.4911833 46.8408605,19.9169646 49.0673828,16.9794922 C44.9459635,13.4290365 40.8307292,10.8035482 36.7216797,9.10302734 C32.6126302,7.40250651 28.4973958,6.51985677 24.3759766,6.45507812 Z" id="Path-4" stroke="#FFFFFF" fill="#059C4A"></path>
                <path d="M22.612793,8.35009766 C19.2794596,10.6984049 16.7363281,15.8585612 14.9833984,23.8305664 C13.2304688,31.8025716 14.1069336,38.819987 17.612793,44.8828125 C21.1363352,42.2287055 23.9223053,40.3410102 25.9707031,39.2197266 C28.019101,38.0984429 31.3853119,36.6184625 36.0693359,34.7797852 C31.7281817,30.5159138 28.7848223,26.8661742 27.2392578,23.8305664 C25.6936933,20.7949586 24.1515384,15.6348024 22.612793,8.35009766 Z" id="Path-5" stroke="#FFFFFF" fill="#2281C3"></path>
            </g>
        </g>
    </g>
</svg>