<?xml version="1.0" encoding="UTF-8"?>
<svg width="176px" height="48px" viewBox="0 0 176 48" version="1.1" xmlns="http://www.w3.org/2000/svg" xmlns:xlink="http://www.w3.org/1999/xlink">
    <!-- Generator: Sketch 46.2 (44496) - http://www.bohemiancoding.com/sketch -->
    <title>vintixLogo</title>
    <desc>Created with Sketch.</desc>
    <defs></defs>
    <g id="Home" stroke="none" stroke-width="1" fill="none" fill-rule="evenodd">
        <g id="Vintix---Home" transform="translate(-140.000000, -24.000000)" fill="#FFFFFF">
            <g id="HEADER">
                <g id="Logo-Vintix" transform="translate(140.000000, 24.000000)">
                    <g>
                        <path d="M175.728814,47.1864407 L164.252731,47.1864407 L160.979687,41.3289041 C160.044531,39.7355093 159.17293,38.0696874 158.446596,36.3404919 L158.242314,36.3404919 C157.443346,38.1375878 156.576285,39.7355093 155.772777,41.3289041 L152.704015,47.1864407 L141.559322,47.1864407 L152.64046,30.5508557 L141.827158,14.6440678 L153.171592,14.6440678 L156.372003,20.1032557 C157.307159,21.7645508 158.17876,23.3624723 159.045821,24.9603938 L159.17293,24.9603938 C160.044531,23.163298 160.848039,21.5653765 161.7151,19.9040813 L164.584121,14.6440678 L175.597165,14.6440678 L164.851957,30.152507 L175.728814,47.1864407 Z" id="Fill-1"></path>
                        <path d="M54.5084746,4.88353998 C54.5084746,7.57865999 52.4709673,9.76271186 49.1868274,9.76271186 L49.1242723,9.76271186 C45.9697106,9.76271186 43.9322034,7.57865999 43.9322034,4.88353998 C43.9322034,2.11853032 46.0367339,0 49.2538506,0 C52.4709673,0 54.4414513,2.11853032 54.5084746,4.88353998" id="Fill-3"></path>
                        <path d="M30.6664637,1.62711864 L41.4915254,1.62711864 L26.326441,46.3728814 L14.4334156,46.3728814 L0,1.62711864 L11.1568121,1.62711864 L16.6375109,20.5522868 C18.1735608,25.9259328 19.5778194,30.9744506 20.6457831,36.5513016 L20.8457423,36.5513016 C21.9818739,31.17314 23.3861325,25.8581977 24.9221824,20.7509763 L30.6664637,1.62711864 Z" id="Fill-5"></path>
                        <polygon id="Fill-7" points="44.7457627 47.1864407 54.5084746 47.1864407 54.5084746 14.6440678 44.7457627 14.6440678"></polygon>
                        <path d="M95.1864407,27.9080733 L95.1864407,47.1864407 L84.8806859,47.1864407 L84.8806859,29.106164 C84.8806859,24.9037703 83.3866973,22.035614 79.660948,22.035614 C76.811303,22.035614 75.1190382,23.9688966 74.3720439,25.8386441 C74.0999904,26.5057627 74.0308243,27.4406365 74.0308243,28.370972 L74.0308243,47.1864407 L63.7296806,47.1864407 L63.7296806,24.9718437 C63.7296806,20.9010585 63.5913483,17.4973919 63.4576271,14.5611622 L72.4031144,14.5611622 L72.8780553,19.0993843 L73.0809426,19.0993843 C74.4365989,16.9618817 77.7611847,13.8305085 83.3221423,13.8305085 C90.0958128,13.8305085 95.1864407,18.3006572 95.1864407,27.9080733" id="Fill-9"></path>
                        <path d="M114.619356,14.5966955 L122.033898,14.5966955 L122.033898,22.096047 L114.619356,22.096047 L114.619356,33.9438385 C114.619356,37.8961379 115.641573,39.703814 118.698973,39.703814 C120.128227,39.703814 120.808163,39.6355139 121.760999,39.4351669 L121.825755,47.1348653 C120.535263,47.6038594 118.019037,48 115.165155,48 C111.834856,48 109.041104,46.8662183 107.343576,45.190589 C105.44253,43.2508661 104.489695,40.1045079 104.489695,35.4828675 L104.489695,22.096047 L100.067797,22.096047 L100.067797,14.5966955 L104.489695,14.5966955 L104.489695,8.44057946 L114.619356,5.69491525 L114.619356,14.5966955 Z" id="Fill-10"></path>
                        <path d="M137.491525,4.88353998 C137.491525,7.57865999 135.454018,9.76271186 132.169878,9.76271186 L132.102855,9.76271186 C128.952761,9.76271186 126.915254,7.57865999 126.915254,4.88353998 C126.915254,2.11853032 129.015317,0 132.236901,0 C135.454018,0 137.424502,2.11853032 137.491525,4.88353998" id="Fill-11"></path>
                        <polygon id="Fill-12" points="126.915254 47.1864407 137.491525 47.1864407 137.491525 14.6440678 126.915254 14.6440678"></polygon>
                    </g>
                </g>
            </g>
        </g>
    </g>
</svg>